/* XPM */
static char *_563a42fe681411882750a99c220e5c1E5rCblkXKENOfVZ9[] = {
/* columns rows colors chars-per-pixel */
"64 64 247 2 ",
"   c #040502",
".  c #0B0502",
"X  c #060902",
"o  c #0B0B04",
"O  c #08070B",
"+  c #0C0C0A",
"@  c #120C03",
"#  c #180B04",
"$  c #130D09",
"%  c #1B0E0C",
"&  c #0E1102",
"*  c #0D1807",
"=  c #141304",
"-  c #14130B",
";  c #1C140B",
":  c #181908",
">  c #1C1A0C",
",  c #090611",
"<  c #161512",
"1  c #1C1512",
"2  c #1C1B14",
"3  c #1E1D19",
"4  c #22140C",
"5  c #241D0C",
"6  c #241511",
"7  c #2A1614",
"8  c #241D12",
"9  c #2B1A11",
"0  c #2E1619",
"q  c #1F2013",
"w  c #24230D",
"e  c #2A270D",
"r  c #33280D",
"t  c #313C0E",
"y  c #2B2414",
"u  c #282814",
"i  c #22221B",
"p  c #2B251B",
"a  c #2D2C1B",
"s  c #342510",
"d  c #342A14",
"f  c #3B2A12",
"g  c #332C1C",
"h  c #3E2D1B",
"j  c #37371A",
"k  c #3D331C",
"l  c #3F1722",
"z  c #2B2A23",
"x  c #2B2A28",
"c  c #322C21",
"v  c #3C2926",
"b  c #3B3423",
"n  c #383729",
"m  c #2D3232",
"M  c #393936",
"N  c #433215",
"B  c #4A3616",
"V  c #4A3813",
"C  c #44351C",
"Z  c #493919",
"A  c #4C3B19",
"S  c #411D27",
"D  c #453624",
"F  c #453B23",
"G  c #493C25",
"H  c #48332A",
"J  c #433D2B",
"K  c #4A3E2A",
"L  c #3D4327",
"P  c #54451C",
"I  c #59491E",
"U  c #4D432B",
"Y  c #484428",
"T  c #544326",
"R  c #5A4B23",
"E  c #51442D",
"W  c #53492E",
"Q  c #5A4B2B",
"!  c #49532B",
"~  c #5B512B",
"^  c #4C4534",
"/  c #47463A",
"(  c #544731",
")  c #544A32",
"_  c #5A4C33",
"`  c #574C3C",
"'  c #5C5135",
"]  c #57553B",
"[  c #5E5439",
"{  c #64572B",
"}  c #61522D",
"|  c #614F39",
" . c #635333",
".. c #695B34",
"X. c #63553A",
"o. c #68563D",
"O. c #645A3C",
"+. c #695A3E",
"@. c #6B633D",
"#. c #766436",
"$. c #524D44",
"%. c #595448",
"&. c #545855",
"*. c #655A42",
"=. c #6B5C42",
"-. c #685B47",
";. c #725F44",
":. c #635D5A",
">. c #6D6244",
",. c #6D644A",
"<. c #6A684A",
"1. c #726446",
"2. c #776947",
"3. c #73654A",
"4. c #75694B",
"5. c #7A6C4D",
"6. c #6F724F",
"7. c #7D704F",
"8. c #696757",
"9. c #756C53",
"0. c #7C6E52",
"q. c #756C5B",
"w. c #7D7254",
"e. c #7A755D",
"r. c #4F5C62",
"t. c #797765",
"y. c #75746D",
"u. c #806A40",
"i. c #82744D",
"p. c #827454",
"a. c #897957",
"s. c #847559",
"d. c #85795B",
"f. c #8B7C5C",
"g. c #847B64",
"h. c #8C7E61",
"j. c #817869",
"k. c #927D62",
"l. c #837D72",
"z. c #8F805F",
"x. c #92825E",
"c. c #8A8268",
"v. c #938463",
"b. c #9A8A65",
"n. c #948768",
"m. c #958A6B",
"M. c #9B8C6B",
"N. c #9D916E",
"B. c #8B8675",
"V. c #8B8878",
"C. c #958D76",
"Z. c #9A8E73",
"A. c #9C9274",
"S. c #98947D",
"D. c #A79172",
"F. c #A49473",
"G. c #A4977B",
"H. c #A39B7B",
"J. c #AB9C7C",
"K. c #ABA07F",
"L. c #B8A77B",
"P. c #918F8B",
"I. c #9B9685",
"U. c #A39C84",
"Y. c #AC9B81",
"T. c #A39C8C",
"R. c #A29C92",
"E. c #ABA284",
"W. c #A9A58B",
"Q. c #ACA58B",
"!. c #B4A689",
"~. c #B4AA8C",
"^. c #A5A395",
"/. c #AAA592",
"(. c #ACAA96",
"). c #B3AC93",
"_. c #B9AE92",
"`. c #B3AD9A",
"'. c #B7B196",
"]. c #BAB295",
"[. c #B4B19D",
"{. c #BBB49A",
"}. c #BEB99B",
"|. c #A7A6A1",
" X c #BBB6A7",
".X c #BBB9B5",
"XX c #C4B99A",
"oX c #C0BAA2",
"OX c #C4BCA8",
"+X c #C2BDB4",
"@X c #CBC399",
"#X c #D4C69D",
"$X c #C8C3A4",
"%X c #C5C2AC",
"&X c #CAC4AC",
"*X c #D5CAA5",
"=X c #D8CAA4",
"-X c #D5CCAA",
";X c #DBCEAA",
":X c #DCD1AE",
">X c #CAC7B6",
",X c #CDCCBD",
"<X c #D4CCB5",
"1X c #DED3B3",
"2X c #D8D4BA",
"3X c #E1D3AE",
"4X c #E1D5B5",
"5X c #E6D9B7",
"6X c #E2D6B9",
"7X c #E4DABC",
"8X c #E8DDBD",
"9X c #E9E0BF",
"0X c #C9C7C2",
"qX c #CFD0C8",
"wX c #DBD6C6",
"eX c #D5D5D3",
"rX c #D8D8D4",
"tX c #DDDDDD",
"yX c #E5DDC3",
"uX c #E9DEC3",
"iX c #E5DFC9",
"pX c #E8DDC8",
"aX c #E1DEDA",
"sX c #DBE0DF",
"dX c #E7E0C5",
"fX c #EAE1C5",
"gX c #E6E1CA",
"hX c #ECE3CB",
"jX c #EEE8CE",
"kX c #F2E9CC",
"lX c #E9E5D6",
"zX c #EDE9D3",
"xX c #F3ECD4",
"cX c #F2ECD9",
"vX c #F3F1D2",
"bX c #F8F3DB",
"nX c #DDDEE2",
"mX c #E0DEE1",
"MX c #E2E2E2",
"NX c #EAEAE6",
"BX c #EAEAE9",
"VX c #F2EFE5",
"CX c #FBF5E2",
"ZX c #FAF7E7",
"AX c #F8F8F4",
"SX c #FEFEFD",
"DX c white",
/* pixels */
"DXDXtXDXDXtXDXDXtXtXDXtXtXDXtXtXDXDXtXDXDXtXDXDXtXtXDXtXMX^.sXtXAXDXtXDXDXtXDXDXtXMXDXtXtXDXMXtXDXDXtXDXDXtXDXDXtXMXDXtXtXDXMXtX",
"DXDXtXDXDXtXDXDXtXNXDXtXtXDXNXnXDXDXtXDXDXtXDXDXtXtXDX1 <X<X<XZX XAXtXDXDXtXDXDXnXMXDXtXtXDXBXtXDXDXtXDXDXtXDXDXtXNXDXrXtXDXNXtX",
"tXMXDXtXtXDXtXtXDXDXtXDXDXtXDXDXtXMXDXtXtXDXMXqX2XDXcX2XlXV.CX3.f.wXDXtXtXDXtXtXDXDXtXDXDXtXDXDXtXtXDXtXtXDXtXtXDXDXtXDXDXtXDXDX",
"DXDXtXDXDXtXDXDXtXtXDXtXtXDXtXtXDXDXtXDXDXaX` wX] yXdXi ^ s.1.hXv.s.<XAXDXtXDXDXtXMXDXtXtXDXtXtXDXDXtXDXDXtXDXDXtXnXDXtXtXDXnXtX",
"DXDXtXDXDXtXDXDXtXMXDXMXtXDXtXtXDXDXtXDX%.wXdXdXgXI.] %.w 5.vX,.b.h.s.,.DXtXDXDXtXMXDXtXtXDXNXtXDXDXtXDXDXtXDXDXtXMXDXMXtXDXtXtX",
"tXMXDXtXtXDXtXtXDXDXtXDXSXtXDXDXtXMXDX>XyXdXdXVXgXF F xX>X4.2.5.v.v.f.=.-.DXtXtXDXDXtXDXDXtXDXDXtXtXDXtXtXDXtXtXDXDXtXDXDXtXDXDX",
"DXDXtXDXDXtXDXDXtXNXDXtXtXDXMXMXDX2 2XdXdXzXa Y fX,X; fX[.2.9.ZXM.n.x.=.%.tXDXDXtXNXDXtXtXDXMXtXDXAXtXDXDXtXDXDXtXNXDXtXtXDXMXtX",
"DXDXtXDXDXtXDXDXtXnXDXtXtXDXtXtXDXyXpXgXI./ %.a ].J C gX(.>.O.>.M.v.b.=.v.lXDXDXtXnXDXtXtXDXMXtXDXDXtXDXDXtXDXDXtXtXDXtXtXDXMXtX",
"tXtXDXtXtXDXtXtXSXSXtXDXDXtXDXSXl.zXzX$.%.c lX8.'.*.cXkXgX1.2.>.M.v.v.=.b.DXtX3 DXDXtXDXDXtXDXDXtXtXDXtXMXDXMXtXDXDXtXDXDXtXDXDX",
"MXMXDXtXMXDXNXtXDXSXtXDXDXMXM yXpXgXY w lX8.e./ oXu <.hX(.>.dXW b.v.k.=.v.% ' G.$.DXnXAXDXtXDXDXtXNXDXtXMXDXBXtXDXDXtXDXDXtXDXDX",
"DXDXtXDXDXtXDXDXtXMXSXnXtXaXyXB.%.kXcX. e.t.<.&XXX. %.gX X4.5.5.M.v.x.3.M.C ~ J.a.` Z.BXtXDXMXtXDXDXtXDXDXtXDXDXtXnXDXtXtXDXMXtX",
"tXMXDXtXnXDXMXtXSXSXtXSXDXwXt.I.a gX) &X~ <.] &X}.cXc gX X1.3.bXM.b.v.=.M.0 P !.h.) Z.; DXtXDXDXtXnXDXtXMXDXtXtXDXDXtXDXDXtXDXDX",
"tXlXSXnXtXDXMXtXDXDXtXDXrXNXVXVXf.yXuXuXd.Y a %X].. G dX(.@.C.2.M.b.x.+.b.9 P _.{.( b.d.1 tXDXDXtXtXDXtXtXDXMXtXDXDXtXDXDXtXDXDX",
"DXDXtXSXDXtXDXDXtXtXDXDXm.+.2X#./ fXgXgXdX<.& >X{.m.9XzXZX4.4.4.M.b.k.=.M.7 A !.x._ Z.d..XDXMXtXDXDXtXDXDXtXDXDXtXtXDXtXtXDXMXtX",
"tXnXSXnXtXDXMXtXDXDXtX*.W.X.hXvXn gXvXxX8X7Xa 8.].F @.fX(.1.&XCXM.v.k.=.b.6 A _.bXR v.d.,XmXDXDXtXBXDXtXtXDXNXtXDXDXtXDXDXtXDXDX",
"tXMXSXtXtXDXNXtXDXDXMX,.1. .gXi.V.gXhXgXuX7X+ &X[.^ - uX/.>.4.4.D.v.x.o.v.9 A XXk.R G.d.0XaXDXDXtXtXDXtXnXDXMXtXDXDXtXDXDXtXDXDX",
"DXDXtXDXDXtXDXDXtXtXDX,.~. .pXS.q.pXxXbXyXfX  b {.iX[ jX%X1.4.w.N.v.v.=.b.7 A ].ZXR F.f. XDXMXtXDXDXtXDXDXtXDXDXtXtXDXtXtXDXnXtX",
"DXDXtXDXDXtXDXDXtXBXDXC.1.X.pX*.F dXhXfXuX7XO %X].= $.gX(.>.jX+.N.v.k.+.b.9 A _.x.R F.h.+XDXBXtXDXDXtXDXDXtXDXDXtXBXDXNXtXDXMXtX",
"tXMXDXtXtXDXMXtXDXDXtX9.n. .%X0.ZXdXxXxX8X7Xz wX{.*.gXxXcX>.4.4.M.b.v. .M.4 A ].W.P J.f.,XtXDXDXtXtXDXtXtXDXtXtXDXDXtXDXDXtXDXDX",
"DXDXtXDXDXtXDXDXtXMXDX&X,. .pXy ' dXfXfXuX7XX <X}./ ~ pX(.>.=.bXM.v.v.*.b.9 A ~.v.R D.h.+XDXMXtXDXDXtXDXDXtXDXDXtXMXDXtXtXDXMXtX",
"DXDXtXDXDXtXDXDXtXMXDX4.3.} XXXXcXdXfXjX8X8X/ %X].g.; yX(.@.[ 7.D.b.v.+.b.6 A !.9.I J.f. XDXaXtXDXDXtXDXDXtXDXDXtXMXDXMXtXDXtXtX",
"tXMXDXtXtXDXtXtXDXDXnXCX>. .yX. R dXhXfX8XfXM ^ '.cX9.jX2X1.5.5.M.v.k.=.b.9 A _.f.R Y.v.,XrXDXDXtXtXDXtXtXDXtXtXDXDXtXDXDXtXDXDX",
"DXDXtXDXDXtXDXDXtXMXDX1.1. .&Xp.t.gXzXfXdXdX- &X'.; :.pX/.>.2XjXM.v.v.o.b.9 A _.v.I E.v. XDXBXtXDXDXtXDXDXtXDXDXtXNXDXtXtXDXNXtX",
"DXDXtXDXDXtXDXDXtXMXDXCX=. .iX%.{ gXdXjX9X9Xj.n }. XZXjX2X>.>.4.N.v.x.=.x.7 A XXpXR J.a. XDXaXtXDXDXtXDXDXtXDXDXtXnXDXtXtXDXnXtX",
"tXMXDXtXtXDXtXtXDXDXnX4.,. .2X..: dXdXdX8X7XO %X'.X Y uX[.>.4.].N.v.v.o.M.7 A _.v.P K.x.,XtXDXDXtXtXDXtXnXDXMXrXDXDXtXDXDXtXDXDX",
"tXMXDXtXtXDXMXtXDXDXnXbX>. .gXVXO.dXbXvX9X7X8.<X).d.&.uX(.>.<X,.M.v.x.o.b.7 B XXbXI D.k.>XtXDXDXtXtXDXtXtXDXMXtXDXDXtXDXDXtXDXDX",
"DXDXtXDXDXtXDXDXtXMXDX>.>...E.#.:.dXuXuX9XfX< >X'.%.@.hXlX>.4.5.M.k.k.+.b.6 A ~.b.P J.v.{.DXtXtXDXDXtXDXDXtXSXDXtXtXDXtXtXDXtXtX",
"tXtXDXtXtXDXMXtXDXDXnXCX4.{ wXxXu yXgXbX9XgX6.%X{.s l.fX/.@.).xXM.b.x.o.m.6 B XXZXI K.v.>XtXDXDXtXtXDXtXtXDXtXtXDXDXtXDXDXtXDXDX",
"tXMXDXtXtXDXMXtXDXDXnX4.1.} c.#.m gXfXfXuXuX+ Y '.jXCXjX(.1.4.4.N.v.k.=.v.4 A _.v.I K.k.&XtXDXDXtXMXDXtXnXDXMXtXDXDXtXDXDXtXDXDX",
"DXDXtXDXDXtXDXSXtXMXDXCXG.} dX<XlXdXgXvXuX1Xq &X'.$ 5 hX`.>.1.>.M.v.f.+.M.7 A _.4.P J.v.`.DXnXtXDXDXtXDXSXnXDXDXtXMXDXtXtXDXMXtX",
"tXMXDXtXtXSXMXtXDXDXMX3.>.} jX2.O pXyXfX9XdX+ b )...(.fX(.@.<XW.M.x.x.o.v.6 B !.d.R E.v..XaXDXDXMXNXDXtXlXDXNXtXDXDXtXDXDXtXDXDX",
"tXMXDXtXtXSXMXtXDXDXnXjXA.} dXZ jXyXdXdX8X4X$ %X].z ' fXwX>.4.1.M.v.f._ v.6 B !.k.P J.x.+XtXDXDXtXtXDXtXtXDXnXtXDXDXtXDXDXtXDXDX",
"DXDXtXDXDXtXDXDXtXtXDX1.>. .uX_ X uXuXyX8X7XX %X/.9.x uX/.+.O.kXb.k.f.o.v.4 A !.5.I J.f.).DXMXtXDXDXtXDXDXtXDXDXtXtXDXtXtXDXMXtX",
"DXDXtXDXDXtXDXDXMXBXDXQ.m.} 7Xp.%X7XuX8X7X4Xm %XQ.pX(.dXV.*.[ 1.v.f.a.=.v.4 N _.f.P J.f.`.DXMXtXDXDXtXDXDXtXDXDXtXNXDXtXtXDXMXtX",
"tXMXDXtXtXDXMXtXDXDXnX>.>.~ pX@ 6 2X8XpX7X5X- $X~.o * pXW.@.1.>.b.f.f.X.v.6 N !.ZXI K.s. XtXDXDXtXtXDXtXtXDXtXtXDXDXtXDXDXtXDXDX",
"DXDXtXDXDXtXDXDXtXMXDX,.m.~ ].f.: 8X8X8X8X9Xz n '.#.2X7XW.' 2XhXv.f.a.X.f.1 B _.f.A J.a./.DXMXnXDXDXtXDXDXtXDXDXtXMXDXtXtXDXMXtX",
"DXDXtXDXDXtXDXDXtXtXDX[ O...7Xn a 7XjXxX5X4X8. XW.O w gX,XO.@.@.b.f.f.| f.; N ~.bXP D.a./.DXMXtXDXDXtXDXDXtXDXDXtXaXDXtXtXDXMXtX",
"tXtXDXtXtXDXtXtXSXSXMXY C.~ '.V - yX1XuX8X5Xo d ).[ o 7XU.O.O.O.k.f.p._ c.4 N ~.f.A F.s.`.tXDXDXtXtXDXtXtXDXMXtXDXDXtXDXDXtXDXDX",
"DXDXtXDXDXtXDXDXtXMXDX-.O.~ 2XCX; 7XdXjX5X:X8. XQ.gXe.fXt.@.kXO.v.s.a.o.f.; f E.xXP D.s.T.DXnXtXDXDXtXDXDXtXDXDXtXMXDXtXtXDXMXtX",
"DXDXtXDXDXtXDXDXtXMXDXY d.T }...&.6X6X7X4X7X+ }.Q.r X uXS.X.O.O.v.s.p._ f.4 N Q.p.A Z.p.T.DXtXtXDXDXtXDXDXtXDXDXtXtXDXsXtXDXnXtX",
"tXMXDXtXtXDXsXtXDXDXtX` [ T 5X9X0X6X6X7X4X4X<.(.E.9.zX7XI.~ n.jXf.s.i._ s.; N E.>.A F.s.`.nXDXDXtXtXDXtXtXDXtXtXDXDXtXDXDXtXDXDX",
"tXMXDXtXtXDXBXaXDXDXMX' ] R XXI O 6X6X1X4X4XO {.Y.o o fX X' [ *.f.p.i._ s.4 f J.>.A Z.p.`.aXDXDXtXBXDXtXMXDXMXtXDXDXtXDXDXtXDXDX",
"DXDXtXDXDXtXDXDXtXnXDXY [ G 7XkXyX4X6X6X3X4X$.n E.C./ 7XS.' [ [ f.p.5._ p.; N Y.s.B m.0.I.DXMXtXDXDXtXDXDXtXDXDXtXnXDXtXtXDXMXtX",
"tXMXDXtXtXDXnXtXDXDXtX[ W T >.{ O 1X7X7X3X:XO '.E.wX+ 6Xj.' :XyXf.p.2.| p.% f U.&XA v.3./.tXDXDXtXMXDXtXMXDXMXtXDXDXtXDXDXtXDXDX",
"MXtXDXtXMXDXtXtXDXDXtX[ ~ G 1XW 2X3X7X6X3X1X& ^ E.,.X :XB._ ' ' s.p.p.K s.% f U.0.Z k.3.R.MXDXDXtXtXDXtXMXDXMXtXDXDXtXDXDXtXDXDX",
"DXDXtXDXDXtXDXDXtXnXSX) _ C dX_ O :XfXfX:X:XX ).K.XXdX1XB.W ~ Y s.5.u._ p.4 f G.kXZ c.1.C.DXaXtXDXDXtXDXDXtXDXDXtXMXDXtXtXDXMXtX",
"tXMXDXtXMXDXNXnXDXDXMXU.Y Z 1X' n 1X1X3X3X:X+ /.E.. o 1X}.W d.d s.5.i.K 0.% f G.3.C h.=.R.nXDXDXMXBXDXtXMXDXNXtXDXDXtXDXDXtXDXDX",
"tXMXDXtXtXDXtXtXDXDXnX) W C 4Xd O :X9XkX:X:XX I.U.e.l.:XC.Y _ ) s.2.;.K 5.% f C.bXZ h.=.R.nXDXDXtXtXDXtXtXDXnXtXDXDXtXDXDXtXDXDX",
"DXDXtXDXDXtXDXDXtXMXDXzX' C 7Xp.c :X;X4X:X*Xx W.K.:.. :XV.! :X1Xp.5.5.( w.% d A.3.k d.*.B.DXMXtXDXDXtXDXDXtXDXDXtXNXDXtXtXDXMXtX",
"DXDXtXDXDXtXDXDXtXNXDXY ^ N ;X> o -X1X7X;X#Xi z E.U X 1Xc.Y W W p.3.3.K 0.$ s Z._.h w.*.l.DXNXtXDXAXtXDXDXtXDXDXnXMXDXMXtXDXMXtX",
"tXMXDXtXtXDXMXtXDXDXMXpXh.D $XQ I.-X1X:X;X;X$ E.Y.fX1X:Xc.Y W U p.;.=.U @.$ s Z.-.b w.*.I.nXDXDXtXtXDXtXtXDXtXtXDXDXtXDXDXtXDXDX",
"DXDXtXDXDXtXDXDXtXMX,Xy e C -XgX[.-X-X#X=X#X/ q.J.;   :X/.G XX6Xp.;.1.E 1.% s C.[ k 9.| l.DXMXtXDXDXtXDXDXtXDXDXtXMXDXtXtXDXMXtX",
"DXDXtXDXDXtXDXDXsXL X Y / j m.f X -X-X:X=X#XX S.J.1.:.-Xc.C U U p.;.3.K 5.% r s.X.g 9.[ l.DXMXtXDXDXtXDXDXtXDXDXtXtXDXsXtXDXMXtX",
"tXMXDXtXtXDXtXtXBXAXn o =   -X@X-X-X* y #X! * ] C.X o c.T.Y r Y 0.;.1.K 5.$ 9 g.[ c 9.[ B.aXDXDXtXtXDXtXtXDXtXtXDXDXtXDXDXtXDXDX",
"DXDXtXDXDXMXDXDXMXM eX! e e ! B   w ! * w : i ! = > > * t Y e h p.3.;.K w.$ 8 X.5Xy ,.`  .#XXXaXDXDXtXDXDXtXDXDXtXBXDXMXtXDXMXtX",
"DXDXtXDXAXnXDXDXsXBXDXm.c f XXgXw t y gXw u Y t t.>   + O j G K i.3.3.E 1.=.>.*.o.X.` ` ' XX*XnXDXDXtXDXDXtXDXDXMXMXDXMXMXDXtXtX",
"tXeX0XC.Z.v.a.O.v v S H.%.T 4 vX; < b.@ @ + (.w XX] e 6.* <.X o !.i - F.>.2 d z 9 p v.p.jXz A.C.m.).t.P.) $.r.r.m M 8.V..X.XSXSX",
"eXqXpXy.$.n H l % 7 H +.*.f.l.[ 5 @ N.n $ o H + o & o O.j e f = k k D k w ' _ _ ) _ ) W ( W ) ( ( ) ) W ] ^ C.B.V.I.t.V. X.XAXSX",
"AXeXP.:.$.y = X v 8 8 E c c ( b k b L.o o X y X X X w X.j j X > j F d g 5 ) ) E ( ( E E U ) U ( ) ^ ) ( ) ( V.C.l.  ,.t.R.eXeXtX",
"rX0X,Xq.h.j.= . j.@ + - ^ w = X = J w.> a X 8 o -     a * o   X * e w a > K K G G Y G D J D K G G D C D K b n Y   u 8.V..X.XAXAX",
"mXaXaXOX^ = T.8 y ; C H b c o . c i & = X = r j <.q.o & = = - X ; ; y > = w U U K K E g = : K U Y U Y b ; e $ J & 2 M 8.(..XAXAX",
"AXBX+XR.$.wX X*.K.i.5 2.f , < O u 2 2 1 ; a d = . . M $ X . R.V.y.8.x . = + U J K b 1 $ o o E G G ; < > = . # > : q M $.P.qXeXnX",
"rXrXaXOXJ 8 e j.X.n c 8.=.*.4.F.2.5.E _ D 5 9 p h.3 - 2 K G K J D b < < y D D D D b < < 5 D H D U.< < - = . - : 3 - x y.|..XBXDX",
"rX>XOXM.,.D.U.G.,.K n . O c _ a b b V.*.s.2XU.I.t.D.h._ ' ;.5.5.=...X.r E *.` d # C k 9 d r 9 C J.d @ f XXh k . F 2 %.l..X.XAXDX"
};
