/* XPM */
static char *_b5f87a02f8f42fbbe1ea6ecebd3db88TqSJEFllWaU3na8h[] = {
/* columns rows colors chars-per-pixel */
"64 64 158 2 ",
"   c #040304",
".  c #090503",
"X  c #060609",
"o  c #09060A",
"O  c #06090D",
"+  c #0A090D",
"@  c #140401",
"#  c #150A06",
"$  c #180B09",
"%  c #060A14",
"&  c #0D0D12",
"*  c #110715",
"=  c #100E14",
"-  c #0F1013",
";  c #09151A",
":  c #121116",
">  c #181212",
",  c #15141B",
"<  c #18171E",
"1  c #1A1A1D",
"2  c #2B130B",
"3  c #281715",
"4  c #271912",
"5  c #341C17",
"6  c #28201D",
"7  c #0E1422",
"8  c #0D182A",
"9  c #1B1B23",
"0  c #131A29",
"q  c #1E1E29",
"w  c #121E34",
"e  c #1D2425",
"r  c #132239",
"t  c #182539",
"y  c #252326",
"u  c #2B2627",
"i  c #21222D",
"p  c #28282D",
"a  c #362128",
"s  c #372C28",
"d  c #35322D",
"f  c #242633",
"g  c #2B2C33",
"h  c #2C2D3A",
"j  c #373434",
"k  c #37383A",
"l  c #4B1B0C",
"z  c #492815",
"x  c #772908",
"c  c #412925",
"v  c #45322D",
"b  c #513022",
"n  c #443530",
"m  c #573F30",
"M  c #35403F",
"N  c #49403B",
"B  c #634429",
"V  c #76463C",
"C  c #6C5233",
"Z  c #7F5330",
"A  c #213D44",
"S  c #262E50",
"D  c #203554",
"F  c #314861",
"G  c #344F73",
"H  c #454446",
"J  c #525749",
"K  c #6D5448",
"L  c #7B5943",
"P  c #6B5E58",
"I  c #745E57",
"U  c #715958",
"Y  c #4D6D71",
"T  c #7A6669",
"R  c #7B6F72",
"E  c #707579",
"W  c #78777A",
"Q  c #9C3C11",
"!  c #A34212",
"~  c #845A3B",
"^  c #D5651A",
"/  c #D76A22",
"(  c #896447",
")  c #936847",
"_  c #9A6E4C",
"`  c #926650",
"'  c #987159",
"]  c #927958",
"[  c #9B7858",
"{  c #AB7659",
"}  c #817366",
"|  c #856D72",
" . c #917B75",
".. c #9C7D74",
"X. c #4C827D",
"o. c #9F8D6F",
"O. c #AC856A",
"+. c #B18467",
"@. c #B68968",
"#. c #B88B68",
"$. c #B58A71",
"%. c #BB9377",
"&. c #CD844B",
"*. c #DD8649",
"=. c #C79466",
"-. c #CC9972",
";. c #5E8585",
":. c #6A8688",
">. c #758784",
",. c #6C9296",
"<. c #7AA3A5",
"1. c #838B8B",
"2. c #97928C",
"3. c #9B9E97",
"4. c #A68F8E",
"5. c #B9A397",
"6. c #96BABE",
"7. c #A6A5A7",
"8. c #A4A7A9",
"9. c #A5A9A9",
"0. c #B1AEAA",
"q. c #B9BAB7",
"w. c #D39B86",
"e. c #CBA382",
"r. c #DDAA89",
"t. c #D1AC90",
"y. c #CAB894",
"u. c #DABD9B",
"i. c #E9B79F",
"p. c #DCBFAF",
"a. c #EABDA6",
"s. c #FCB9AF",
"d. c #E1BEB5",
"f. c #CFC7BE",
"g. c #E9CAAB",
"h. c #F3C6AA",
"j. c #E5C7B3",
"k. c #A8C5CD",
"l. c #BBC7C9",
"z. c #A2D3D8",
"x. c #B5D3D6",
"c. c #BAEBDF",
"v. c #C3C4C4",
"b. c #CECDC9",
"n. c #DBC8C1",
"m. c #C3D8D9",
"M. c #D0D4D6",
"N. c #ECD7C6",
"B. c #F7D6CC",
"V. c #E8D9D1",
"C. c #F1DFD1",
"Z. c #FFE6DF",
"A. c #CDE2E0",
"S. c gray90",
"D. c #E6E8E7",
"F. c #EEEEEE",
"G. c #F2F2F2",
"H. c #FFFFFF",
/* pixels */
"H.H.F.H.H.F.H.H.F.H.H.F.H.H.F.H.H.F.H.H.F.H.H.F.H.H.F.H.H.F.H.H.F.G.H.F.F.H.F.F.H.F.F.H.F.F.H.F.F.H.F.F.H.F.F.H.F.F.H.F.F.H.G.F.",
"F.G.H.F.F.H.F.F.H.F.F.H.F.F.H.F.F.H.F.F.H.F.F.H.F.F.H.F.F.H.F.F.H.H.F.H.H.F.H.H.F.H.H.F.H.H.F.H.H.F.H.H.F.H.H.F.H.H.F.H.H.F.H.H.",
"F.F.H.F.F.H.F.F.H.F.F.H.F.F.H.F.F.H.F.F.H.F.F.H.F.F.H.F.F.H.G.F.H.H.F.H.H.F.H.H.F.H.H.F.H.H.F.H.H.F.H.H.F.H.H.F.H.H.F.H.H.F.H.H.",
"H.H.F.H.H.F.H.H.F.H.H.F.H.H.F.H.H.F.H.H.F.H.H.F.H.H.F.H.H.F.H.H.F.F.H.F.F.H.F.F.H.F.F.H.F.F.H.F.F.H.F.F.H.F.F.H.F.F.H.F.F.H.G.D.",
"F.G.H.F.F.H.F.F.H.F.F.H.F.F.H.F.F.H.F.F.H.F.F.H.F.F.H.F.F.H.F.F.H.H.F.H.H.F.H.H.F.H.H.F.H.H.F.H.H.F.H.H.F.H.H.F.H.H.F.H.H.F.H.H.",
"F.G.H.F.F.H.F.F.H.F.F.H.F.F.H.F.F.H.F.F.H.F.F.H.F.F.H.F.F.H.G.F.H.H.F.H.H.F.H.H.F.H.H.F.H.H.F.H.H.F.H.H.F.H.H.F.H.H.F.H.H.F.H.H.",
"H.H.F.H.H.F.H.H.F.H.H.F.H.H.F.H.H.F.H.H.F.H.H.F.H.H.F.H.H.F.H.H.F.F.H.F.F.H.F.F.H.F.F.H.F.F.H.F.F.H.F.F.H.F.F.H.F.F.H.F.F.H.F.F.",
"F.F.H.F.F.H.F.F.H.F.F.H.F.F.H.F.F.H.F.F.H.F.F.H.F.F.H.F.F.H.G.F.H.H.F.H.H.F.H.H.F.H.H.F.H.H.F.H.H.F.H.H.F.H.H.F.H.H.F.H.H.F.H.H.",
"H.H.F.H.H.F.H.H.G.H.H.F.H.H.F.H.H.G.H.H.F.H.H.G.H.H.F.H.H.G.G.H.F.G.H.G.F.H.F.G.H.F.G.H.G.G.H.F.F.H.G.G.H.F.G.H.G.G.H.G.F.H.G.G.",
"H.H.F.H.H.F.H.H.F.H.H.F.H.H.F.H.H.F.H.H.D.H.H.F.H.H.F.H.H.F.H.F t D G F.F.H.F.F.H.F.F.H.F.F.H.F.F.H.F.F.H.F.F.H.F.F.H.F.F.H.F.F.",
"D.F.H.F.F.H.F.F.H.F.F.H.F.F.H.F.F.H.F.F.H.F.F.H.F.F.H.F.F.H.F.0 8 0 w r S F.H.H.F.H.H.F.H.H.F.H.H.F.H.H.F.H.H.F.H.H.F.H.H.F.H.H.",
"H.H.F.H.H.F.H.H.F.H.H.F.H.H.F.H.H.F.H.H.F.H.H.F.H.H.F.H.H.F.H.O 7 7 8 # N.z F.F.H.F.F.H.F.F.H.F.F.H.F.F.H.F.F.H.F.F.H.F.F.H.G.F.",
"H.H.F.H.H.F.H.H.F.H.H.F.H.H.F.H.H.F.H.H.F.H.H.F.H.H.F.H.H.F.H.H.; ; 5 j.2.h.D.F.H.F.F.H.F.F.H.F.F.H.F.F.H.F.F.H.F.F.H.F.F.H.G.F.",
"F.F.H.F.F.H.F.F.H.F.F.H.F.F.H.F.F.H.F.F.H.F.F.H.F.F.H.F.F.H.G.F.+ 2 L a.Z.h.S.H.F.H.H.F.H.H.F.H.H.F.H.H.F.H.H.F.H.H.F.H.H.F.H.H.",
"H.H.F.H.H.F.H.H.F.H.H.F.H.H.F.H.H.F.H.H.F.H.H.F.H.H.F.H.H.F.H.H.@ w.{ i.h.C.G.F.H.F.F.H.F.F.H.F.F.H.F.F.H.F.F.H.F.F.H.F.F.H.F.F.",
"H.H.F.H.H.F.H.H.F.H.H.F.H.H.F.H.H.F.H.H.F.H.H.F.H.H.F.H.H.D.H.H.6 3.f.{ r.{ G.F.H.F.F.H.F.F.H.F.F.H.F.F.H.F.F.H.F.F.H.F.F.H.G.F.",
"F.F.H.F.F.H.F.F.H.F.F.H.F.F.H.F.F.H.F.F.H.F.F.H.F.F.H.F.F.H.G.F.1 9 j j 3 w.s.H.F.H.H.F.H.H.F.H.H.F.H.H.F.H.H.F.H.H.F.H.H.F.H.H.",
"H.H.F.H.H.F.H.H.F.H.H.F.H.H.F.H.H.F.H.H.F.H.H.F.H.H.F.H.H.F.H.W , q h E d J d.F.H.F.F.H.F.F.H.F.F.H.F.F.H.F.F.H.F.F.H.F.F.H.G.F.",
"F.G.H.F.F.H.F.F.H.F.F.H.F.F.H.F.F.H.F.F.H.F.F.H.F.F.H.F.F.H.G.: , 9 9 g 8.; 1.v.F.H.H.F.H.H.F.H.H.F.H.H.F.H.H.F.H.H.F.H.H.F.H.H.",
"F.F.H.F.F.H.F.F.H.F.F.H.F.F.H.F.F.H.F.F.H.F.F.H.F.F.H.F.F.H.& : , 9 9 i h F.p q.% H.H.F.H.H.F.H.H.F.H.H.F.H.H.F.H.H.F.H.H.D.H.H.",
"H.H.F.H.H.F.H.H.F.H.H.F.H.H.F.H.H.F.H.H.F.H.H.F.H.H.F.H.H.F.& , 9 9 9 q i f     = F.F.H.F.F.H.F.F.H.F.F.H.F.F.H.F.F.H.F.F.H.G.F.",
"F.G.H.F.F.H.F.F.H.F.F.H.F.F.H.F.F.H.F.F.H.F.F.H.F.F.H.F.F.H., : 9 9 9 9 q f , X = H.H.F.H.H.F.H.H.F.H.H.F.H.H.F.H.H.F.H.H.F.H.H.",
"F.G.H.F.F.H.F.F.H.F.F.H.F.F.H.F.F.H.F.F.H.F.F.H.F.F.H.F.F.H.& : , 9 9 , 9 i f   & H.H.F.H.H.F.H.H.F.H.H.F.H.H.F.H.H.F.H.H.F.H.H.",
"H.H.F.H.H.F.H.H.F.H.H.F.H.H.F.H.H.F.H.H.F.H.H.F.H.H.F.H.H.F.+ , , 9 9 , 9 q i f : F.F.H.F.F.H.F.F.H.F.F.H.F.F.H.F.F.H.F.F.H.G.D.",
"D.G.H.F.F.H.F.F.H.F.F.H.F.F.H.F.F.H.F.F.H.F.F.H.F.F.H.F.F.H.+ : - 9 & - 9 9 0 f & H.H.F.H.H.F.H.H.F.H.H.F.H.H.F.H.H.F.H.H.F.H.H.",
"H.H.F.H.H.F.H.H.F.H.H.F.H.H.F.H.H.F.H.H.F.H.H.F.H.H.F.H.H.F.+ o 9 < O , : k q e f F.F.H.F.F.H.F.F.H.F.F.H.F.F.H.F.F.H.F.F.H.G.F.",
"H.H.F.H.H.F.H.H.F.H.H.F.H.H.F.H.H.F.H.H.F.H.H.F.H.H.F.H.H.F.X : , 9 & : , 9 9 % h F.F.H.F.F.H.F.F.H.F.F.H.F.F.H.F.F.H.F.F.H.G.F.",
"F.G.H.F.F.H.F.F.H.F.F.H.F.F.H.F.F.H.F.F.H.F.F.H.F.F.H.F.F.H.& & - 9 & , 9 q 9   f H.H.F.H.H.F.H.H.F.H.H.F.H.H.F.H.H.F.H.H.D.H.H.",
"H.H.F.H.H.F.H.H.F.H.H.F.H.H.F.H.H.F.H.H.F.H.H.F.H.H.F.H.H.F.o , 9 , , , < 9 i   q F.F.H.F.F.H.F.F.H.F.F.H.F.F.H.F.F.H.F.F.H.G.F.",
"H.H.F.H.H.F.H.H.F.H.H.F.H.H.F.H.H.F.H.H.F.H.H.F.H.H.F.H.H.F.& 9 9 9 : 9 9 9 9 , X H F.H.F.F.H.F.F.H.F.F.H.F.F.H.F.F.H.F.F.H.G.F.",
"D.F.H.F.F.H.F.F.H.F.F.H.F.F.H.F.F.H.F.F.H.F.F.H.F.F.H.F.F.H.= : 9 9 , 9 9 9 9 <   t H.F.H.H.F.H.H.F.H.H.F.H.H.F.H.H.F.H.H.F.H.H.",
"H.H.F.H.H.F.H.H.F.H.H.F.H.H.F.H.H.F.H.H.F.H.H.F.H.H.F.H.H.F.+ < 9 e , 3 9 9 9 <   i F.H.F.F.H.F.F.H.F.F.H.F.F.H.F.F.H.F.F.H.F.F.",
"G.G.H.G.G.H.G.G.H.G.G.H.G.G.H.G.G.H.G.G.H.G.G.H.G.G.H.G.G.H.+ + 9 9 = , < 9 q 1     G.G.H.G.G.H.G.G.H.G.G.H.G.G.H.G.G.H.G.G.H.G.",
"G.F.H.F.F.H.G.F.H.F.F.H.G.F.H.F.F.H.G.F.H.F.F.H.F.F.H.F.F.H.+ 1 9 9 = , 9 9 9 9     H.F.H.H.F.H.H.F.H.H.F.H.H.F.H.H.F.H.H.F.H.H.",
"H.H.F.H.H.F.H.H.D.H.H.F.H.H.F.H.H.F.H.H.D.H.H.F.H.H.F.H.H.F.+ + i y : < 9 9 1 ,     : H.F.F.H.F.F.H.F.F.H.F.F.H.F.F.H.F.F.H.G.F.",
"F.G.H.F.F.H.F.F.H.F.F.H.F.F.H.F.F.H.F.F.H.F.F.H.F.F.H.F.F.H.X   + H : 9 9 9 , 9 &   & F.H.H.F.H.H.F.H.H.F.H.H.F.H.H.F.H.H.F.H.H.",
"F.F.H.F.F.H.F.F.H.F.F.H.F.F.H.F.F.H.F.F.H.F.F.H.F.F.H.F.F.H.. P 2.b.* < , 9 9 , :     F.H.H.F.H.H.F.H.H.F.H.H.F.H.H.F.H.H.F.H.H.",
"H.H.F.H.H.F.H.H.F.H.H.F.H.H.F.H.H.F.H.H.F.H.H.F.H.H.F.H.H.F.. N a =.* , 9 : 9 , -     H.F.F.H.F.F.H.F.F.H.F.F.H.F.F.H.F.F.H.G.D.",
"F.G.H.F.F.H.F.F.H.F.F.H.F.F.H.F.F.H.F.F.H.F.F.H.F.F.H.F.F.H.[ v * l *.: 9 , , , :     F.H.H.F.H.H.F.H.H.F.H.H.F.H.H.F.H.H.F.H.H.",
"F.G.H.F.F.H.F.F.H.F.F.H.F.F.H.F.F.H.F.F.H.F.F.H.F.F.H.F.F.R $.U r.p.&.=., 9 9 : +     1 H.H.F.H.H.F.H.H.F.H.H.F.H.H.F.H.H.F.H.H.",
"H.H.F.H.H.F.H.H.F.H.H.F.H.H.F.H.H.F.H.H.F.H.H.F.H.H.F.H.' } y.v | c V / g.1 < : +     X F.F.H.F.F.H.F.F.H.F.F.H.F.F.H.F.F.H.G.F.",
"F.F.H.F.F.H.F.F.H.F.F.H.F.F.H.F.F.H.F.F.H.F.F.H.F.F.H.c ] u.j.n.@.+.n h.^ B.= & + X     H.H.F.H.H.F.H.H.F.H.H.F.H.H.F.H.H.F.H.H.",
"H.H.D.H.H.F.H.H.F.H.H.F.H.H.F.H.H.F.H.H.F.H.H.F.H.H.F.0.=.( O.s ` e.j.t.5 ! K & + X     F.F.H.F.F.H.F.F.H.F.F.H.F.F.H.F.F.H.G.F.",
"H.H.F.H.H.F.H.H.F.H.H.F.H.H.F.H.H.F.H.H.F.H.H.F.H.H.F.H.p B L 2 e.m K R ..L Q $ & X F.H.F.F.H.F.F.H.F.F.H.F.F.H.F.F.H.F.F.H.F.F.",
"F.G.H.F.F.H.F.F.H.F.F.H.F.F.H.F.F.H.F.F.H.F.F.H.F.F.H.F.F.u 4 I %.5 +.%.4.T  .x o % H.F.H.H.F.H.H.F.H.H.F.H.H.F.H.H.F.H.H.F.H.H.",
"H.H.F.H.H.F.H.H.F.H.H.F.H.H.F.H.H.F.H.H.F.H.H.F.H.H.F.H.H.q.C + 5.$ -._  .) _ > H.F.F.H.F.F.H.F.F.H.F.F.H.F.F.H.F.F.H.F.F.H.G.F.",
"H.H.F.H.H.F.H.H.F.H.H.F.H.H.F.H.H.F.H.H.F.H.H.F.H.H.F.H.H.    # ~ #.V.c T @ F.F.H.F.F.H.F.F.H.F.F.H.F.F.H.F.F.H.F.F.H.F.F.H.G.F.",
"F.F.H.F.F.H.F.F.H.F.F.H.F.F.H.F.F.H.F.F.H.F.F.H.F.F.H.F.X .     B ( o.Z .   H.H.F.H.H.F.H.H.F.H.H.F.H.H.F.H.H.F.H.H.F.H.H.D.H.H.",
"H.H.D.H.H.F.H.H.F.H.H.F.H.H.F.H.H.F.H.H.F.H.H.F.H.H.F.& X X   H.D.o.# b X + F.F.H.F.F.H.F.F.H.F.F.H.F.F.H.F.F.H.F.F.H.F.F.H.G.F.",
"F.G.H.F.F.H.F.F.H.F.F.H.F.F.H.F.F.H.F.F.H.F.F.H.F.F.H.+ X .   F.H.%.9.. X + H.H.F.H.H.F.H.H.F.H.H.F.H.H.F.H.H.F.H.H.F.H.H.F.H.H.",
"F.G.H.F.F.H.F.F.H.F.F.H.F.F.H.F.F.H.F.F.H.F.F.H.F.F.& &   X G.F.H.H.F.X   o H.H.F.H.H.F.H.H.F.H.H.F.H.H.F.H.H.F.H.H.F.H.H.F.H.H.",
"H.H.F.H.H.F.H.H.F.H.H.F.H.H.F.H.H.F.H.H.F.H.H.F.H.H.+ + . , H.H.F.G.H.  X . F.F.H.F.F.H.F.F.H.F.F.H.F.F.H.F.F.H.F.F.H.F.F.H.G.D.",
"F.G.H.F.F.H.F.F.H.F.F.H.F.F.H.F.F.H.F.F.H.F.F.H.F.F.X O X H.F.F.H.H.D.H.X . H.H.F.H.H.F.H.H.F.H.H.F.H.H.F.H.H.F.H.H.F.H.H.F.H.H.",
"F.F.H.F.F.H.F.F.H.F.F.H.F.F.H.F.F.H.F.F.H.F.F.H.F.+ X % F.H.G.F.H.H.F.H.. . H.H.F.H.H.F.H.H.F.H.H.F.H.H.F.H.H.F.H.H.F.H.H.F.H.H.",
"H.H.F.H.H.F.H.H.F.H.H.F.H.H.F.H.H.F.H.H.F.H.H.F.H.X X p.H.F.H.H.F.G.H.F.1 o = F.H.F.F.H.F.F.H.F.F.H.F.F.H.F.F.H.F.F.H.F.F.H.F.F.",
"F.G.H.F.F.H.F.F.H.F.F.H.F.F.H.F.F.H.F.F.H.F.F.M + + X F.F.H.G.F.H.H.F.H.H.X +   F.H.H.F.H.H.F.H.H.F.H.H.F.H.H.F.H.H.F.H.H.F.H.H.",
"G.G.H.G.G.H.G.G.H.G.G.H.G.G.H.G.G.H.G.G.H.G.u 1 X X - g G.H.G.G.H.G.G.H.H X X + , H.G.G.H.G.G.H.H.G.G.H.G.G.H.G.H.G.G.H.G.G.H.G.",
"H.H.F.H.H.F.H.H.F.H.H.F.H.H.F.H.H.F.H.H.F.>.x.e 1 + g v.H.F.H.H.F.G.H.F.X : + : - : , A F.G.H.F.F.H.F.F.H.F.F.H.F.F.H.F.G.H.G.F.",
"F.G.H.F.F.H.F.F.H.F.F.H.F.F.H.F.F.H.F.F.H.F.M.X.;.1 y g F.H.F.F.H.H.F.H.:.,.z.6.Y <.m.F.H.H.F.H.H.F.H.H.G.H.H.F.H.H.F.H.H.F.H.H.",
"H.H.F.H.H.F.H.H.F.H.H.F.H.H.F.H.H.F.H.H.F.H.H.F.l.k.y , 9 H H.H.F.F.H.F.7.>.9.F.H.F.F.H.F.F.H.F.F.H.F.F.H.F.F.H.F.F.H.F.F.H.G.F.",
"H.H.F.H.H.F.H.H.F.H.H.F.H.H.F.H.H.F.H.H.F.H.H.F.H.H.m.c.A.S.H.H.F.G.H.F.G.H.F.F.H.F.F.H.F.F.H.F.F.H.F.F.H.F.F.H.F.F.H.F.F.H.G.F.",
"F.F.H.F.F.H.F.F.H.F.F.H.F.F.H.F.F.H.F.F.H.F.F.H.F.F.H.F.F.H.G.F.H.H.F.H.H.F.H.H.F.H.H.F.H.H.F.H.H.F.H.H.F.H.H.F.H.H.F.H.H.F.H.H.",
"H.H.F.H.H.F.H.H.F.H.H.F.H.H.F.H.H.F.H.H.F.H.H.F.H.H.F.H.H.F.H.H.F.G.H.F.F.H.F.F.H.F.F.H.F.F.H.F.F.H.F.F.H.F.F.H.F.F.H.F.F.H.F.F.",
"H.H.F.H.H.F.H.H.F.H.H.F.H.H.F.H.H.F.H.H.F.H.H.F.H.H.F.H.H.D.H.H.F.F.H.F.F.H.F.F.H.F.F.H.F.F.H.F.F.H.F.F.H.F.F.H.F.F.H.F.F.H.G.F."
};
