/* XPM */
static char *_c341d0b7e794ed0cf01444c0e7002a43NTxh87yHfAxN4c0[] = {
/* columns rows colors chars-per-pixel */
"64 64 97 2 ",
"   c #C5A65E",
".  c #C7A761",
"X  c #C7A963",
"o  c #C9AA66",
"O  c #CBAD6B",
"+  c #CDB06E",
"@  c #CEB273",
"#  c #CFB578",
"$  c #D0B576",
"%  c #D1B67A",
"&  c #D3B97D",
"*  c #D5BC84",
"=  c #D7BF89",
"-  c #D8BF89",
";  c #D9C18D",
":  c #DBC594",
">  c #DCC798",
",  c #DEC99C",
"<  c #E0CC9F",
"1  c #DFCCA2",
"2  c #DECEA9",
"3  c #DFD1B1",
"4  c #E0CEA4",
"5  c #E1CFA9",
"6  c #E2D0A7",
"7  c #E3D2AC",
"8  c #E4D5B3",
"9  c #E7D8B7",
"0  c #E8D9B7",
"q  c #E4D7BA",
"w  c #E6D9BB",
"e  c #E9DBBD",
"r  c #E5DBC4",
"t  c #E9DDC3",
"y  c #E6DECB",
"u  c #E8DEC9",
"i  c #E5DFD2",
"p  c #ECE0C6",
"a  c #EDE2CB",
"s  c #F0E5CE",
"d  c #E5E0D5",
"f  c #ECE4D3",
"g  c #E6E2DC",
"h  c #E9E5DB",
"j  c #EEE9DB",
"k  c #F1E7D1",
"l  c #F3E9D5",
"z  c #F2EBDB",
"x  c #F3EBDB",
"c  c #F5ECDB",
"v  c #F3ECDC",
"b  c #F6EEDD",
"n  c #F6EFDF",
"m  c #E6E4E1",
"M  c #E6E5E2",
"N  c #E6E5E3",
"B  c #E6E6E6",
"V  c #E9E6E0",
"C  c #E9E7E4",
"Z  c #EAE8E2",
"A  c #EAEAE7",
"S  c #EAE9E8",
"D  c #EBEBEA",
"F  c #F3EDE0",
"G  c #F4EEE2",
"H  c #F5EFE2",
"J  c #F0EEEB",
"K  c #F7F0E0",
"L  c #F6F0E2",
"P  c #F7F0E2",
"I  c #F5F0E5",
"U  c #F8F2E4",
"Y  c #F8F3E6",
"T  c #F4F1EA",
"R  c #F6F2EA",
"E  c #F7F4ED",
"W  c #F9F3E8",
"Q  c #F8F4E9",
"!  c #FAF5EB",
"~  c #FAF6EE",
"^  c #FBF7EE",
"/  c #FBF7EF",
"(  c #F4F3F3",
")  c #F8F6F0",
"_  c #FBF7F0",
"`  c #FBF8F1",
"'  c #FBF8F2",
"]  c #FCF9F2",
"[  c #FCF9F3",
"{  c #FAFAF7",
"}  c #FDFBF6",
"|  c #FDFCF7",
" . c gray98",
".. c #FDFCF8",
"X. c #FEFDFB",
"o. c #FEFEFC",
"O. c #FFFFFE",
/* pixels */
"O.B O.B O.B O.B O.B O.D D O.B O.B O.B O.B O.B O.B O.B O.B O.B O.B O.B  . .B O.B O.B O.B O.B O.B O.B O.B O.B O.B O.B O.D D O.B O.",
"B O.B O.B O.B O.B O.B  . .B O.B O.D ..N O.B O.B O.B O.B O.B O.B O.B O.D D O.B O.B O.B O.B O.B O.B O.B O.B O.B O.B O.B  . .B O.B ",
"B O.B O.B O.B O.B O.B  . .B O.g ..d O.B ..B O.B O.B O.B O.B O.B O.B _ D h O.g O.B O.g O.B O.B O.B O.B O.B O.B O.B O.B  . .B O.B ",
"O.B O.B O.B O.B O.B O.D D O.B O.B ..B H B O.B O.B O.B O.B O.B O.B ^ g I R g 7 i } i ^ B O.m O.B O.B O.B O.B O.B O.B O.D D O.B O.",
"B O.B O.B O.B O.B O.B  . .m O.g ^ B W B [ B O.B O.B O.B O.g O.g } d } A h v y P g [ g O.B } B O.B O.B O.B O.B O.B O.B  . .B O.B ",
"B O.B O.B O.B O.B O.B  .z d O.B ..7 ^ B H 8 O.B O.B O.B O.B O.B } m ^ A C ..d [ r k B u i ^ N O.B O.B O.B O.B O.B O.B  . .B O.B ",
"O.B O.B O.B O.B O.B ..h D O.B Q h l V Y d H B O.B O.g O.m W d O.i O.d [ R d O.d 1 8 ^ 8 H g O.B O.B O.B O.B O.B O.B O.D D O.B O.",
"B O.B O.B O.B O.B O.d E z y Q g I w I q 8 d W B I B [ B H B ..u { 8 } d d ^ 8 a u l i W g T B } B O.B O.B O.B O.B O.B  . .B O.B ",
"O.B O.B O.B O.B O.B Q h D Y h ^ y Y d f r v u Y d O.r W g } d Y g ..i  .k 1 p i ..y _ i ..h _ N O.B O.B O.B O.B O.B O.D D O.B O.",
"O.B O.B O.B O.B O.d Q h d 8 8 s g l i _ y ..B } d l y n i } 8 H i l 8 { ` q z 8 k i ^ g u g l g O.B O.B O.B O.B O.B O.D D O.B O.",
"B O.B O.B O.B O.B ` g Y ^ 7 k 7 P d Y r H d Y q ^ d a w H y Q m e V _ g e > g O h r = 8 u ^ B } d O.B O.B O.B O.B O.B  . .B O.B ",
"O.B O.B O.B O.g ..B t Z h Q i l i k y 7 i e u W g n 7 z d _ 7 Y 5 k i H Q 8 P u Y g y 7 O.i k g } B O.B O.B O.B O.B O.D D O.B O.",
"O.B O.B O.B O.B Q B H d i W i u q l : P q f 4 n 4 a i k e k 1 v 8 _ r 8 z i Q 8 O.4 W r W r k y O.g O.B O.B O.B O.B O.D D O.B O.",
"B O.B O.B O.B { d ..u a u d ..r : 8 1 , 7 3 a 7 w a w r n r s 8 5 8 7 f 7 p 8 H u u y | i P q F u O.B O.B O.B O.B O.B  . .B O.B ",
"O.B O.B O.B O.B O.B ^ V u l 8 u , Y 7 0 w w w n 7 , 7 w w w 7 7 5 w 4 e 4 q n d ` u H w ^ y } r ..B ` B O.B O.B O.B O.D D O.B O.",
"B O.B O.B O.i ^ d ^ d H H d p 8 4 8 7 u 8 1 8 4 H t p 7 : , 8 8 n : : 8 7 w 4 p y Y 1 q u 9 8 ` d ..B O.B O.B O.B O.B  . .B O.B ",
"B O.B O.B O.B O.B W w k a r P i 8 4 f 7 7 7 Q w 7 * , t p 7 , 7 2 : ; , d e : l d l y n w ^ r Y d O.w O.m O.B O.B O.B  . .B O.B ",
"O.B O.B O.B O.g H r } h t e y 7 1 8 8 p - t w 7 7 % : # 4 e w 7 - - , Y s 5 4 u n 9 t w P i : r { g I d } B { B O.B O.D D O.B O.",
"B O.B O.B ^ B H i l i ^ w q 8 4 p u , ; e < 7 7 t 7 ; & 4 6 8 8 8 , * 8 t p < t 4 u 7 n r 4 4 n q 9 y ^ y n d O.B O.B  . .B O.B ",
"B O.B O.B O.B n 8 _ i r a w l q n 7 8 4 : w u w 7 7 , 4 1 4 8 w : : 8   f : : q u k q p 6 t r s u I y ^ g ..B O.B O.B  . .B O.B ",
"O.B O.B O.B ` d e g l f r 2 * 8 = Y O 7 , l : p & 4 ; 7 , e w 4 w u * $ l , u < , y 8 r l 8 t 4 a 8 q d [ y f d O.B O.D D O.B O.",
"B O.B O.B } d I q f d Y l e : 7 t , 8 y s 8 r 1 4 ; ; ; 8 < 8 7 $ 4 - 4 < 4 8 < 4 a 8 k y u : s q O.e Y 8 Y i } d s B  . .B O.B ",
"O.B O.B O.g ..d P B w y A Y r = 8 4 7 s w % ; & & 7   $ > 6 7 s :     7 w 7 t q e r w q : * 8 q u r } r H g E u _ d ^ D D O.B O.",
"O.B O.B O.B O.d Y w u r y e * t ; : $ 8 u t 8 6 & > : : 7 t 8 w : < 4 ; , 4 z 4 * * w < u * 1 8 4 ; z u H u ..i R B ` D D O.B O.",
"B O.B O.B O.B ` w P y 8 z , 7 q < = p 0 k % 4 * * : * $ : 8 e * < * @ : 8 7 q e * 8 r 7 4 p * ; 8 _ * H r u m l r | B  . .B O.B ",
"O.B O.B O.B ^ m v : l 1 y 7 8 n : . < : 7 4 . & % % @ w 4 * ; 7 = : $ w O 8 4 , 7 4 7 e < w ; q r 8 u i P i ..y Y 8 ` h D O.B O.",
"O.B O.B O.d [ i t q ; , 8 7 7 : : - : w w q 7 , , , < 4 8 6 4 7 : 4 * 6 : < k 7 O O 2 8 4 7 4 4 7 t 4 B a g W d k w n V D O.B O.",
"B O.B O.B ..m P : , 8 4 8 8 * * : : 4 8 7 4 8 - , , , w : : w 7 ; 4 7 : 7 < r & 7 : 7 0 4 , O 4 7 k 1 H y k i ^ g { m _  .B O.B ",
"O.B O.B O.B R h p e 7 4 , 6 , : : e < 4 < 7 : * * 8 : 4 1 4 7 : - r , : 8 u 8 , O 4 ; 4 , = s 8 s y x 4 u y l r Y B | D D O.B O.",
"D  .D  .D ` D 7 p f , $ p e 8 4 5 , 4 % e , & * 8 @ , : 8 & 4 7 * 5 : 7 4 7 2 @ - 8 1 & 7 7 e 8 , P w x h 1 D a V { h ( H D  .D ",
"B O.B O.B ^ g l r 8 : : , 4 Y 8 , : * 4 7 % p @ * , , : 7 O 7 ; * : e 8 , n 7 4 7 $ , t 1 4 : 7 : t r e w W w | i z m  ._ B O.B ",
"O.B O.B O.B H r w : ; 4 9 7 8 4 8 : ; n ; 7 4 1 , & 7 7 : w w 8 7 8 8 e : 7 7 : 1 , 8 A o q s d k 8 f y # m } 4 / m  .D g O.B O.",
"B O.B O.B [ B Y 8 p : % q 7 7 < - ; $ < < 7 4 < ; o 8 ; , 4 < : , : 5 4 4 7 : : 7 7 , t 4 , 8 & u p ; H u _ r f B Q e  . .B O.B ",
"B O.B O.i [ w k f e 7 < 8 8 8 < - * - % * : $ : r 1 4 , - 5   : * 7 , 8 t w 8 p 4 : 8 4 8 q 9 w 8 8 4 u d ^ y _ B H d {  .B O.B ",
"O.B O.d O.g 8 y b w * < * s 8 7 O 7 , 8 8 8 : 8 4 * $ $ 5 ,   : : 7 4 4 n w * - 8 o p 4 p * p 4 t & e * _ i f i n B ` D D O.B O.",
"B O.B O.u O.B l 7 q 5 t p 4 6 0 , 1 X , ; : ; < p 4 e q ; * ; & 5 ; 7 , ; 8 2 8 7 o 4 w < ; o l : k , e 8 v m _ m O.B  . .B O.B ",
"( ( ( D ( D Y w u t ; , w w 7 6 7 4 * % O = 5 < p 7 , ; 4 : % - t , 8 * 8 w t ; 7 w 7 e : 5 , < p = w y 8 H n a H D T R J ( J  .",
"O.B O.h _ B n r f u w ; 7 t > 6 % 4 : : 8 ; 7 7 , 4 < < : ; < 4 q 8 4 , , d 0 , $ 7 p f w * 7 w n 6 l w l i H r j N O.D D O.B O.",
"B O.B O.d | d a , l , * 7 7 8 , 8 8 4 ; 4 : 7 = * 4 : & - : . 4 s : * : 4 e : ; & 4 4 l 7 8 7 f ; k t u % _ d t d W B {  .B O.B ",
"O.B O.B | m : u p r * 7 e p 7 * - w 2 7 ; 4 4 : : $ , 1 = % r 8 7 w > , k r t w u ; W 7 : r k r k d Y y u 4 n i ^ m | A B O.B O.",
"O.B ..B n g ..u k r 8 u w s w t , - y 7 8 * & 7 8 : : * & 4 8 7 : 8 4 p t 7 x q 0 t x w w q t : q p I 7 e 2 ..g } B O.h D O.B O.",
"B O.m W m ` B Q d 8   7 k 4 . , 4 , l w 7 @ : 4 5 < 4 - & 7 0 7 : : 4 0 4 l r < 8 k % t 4 l : 0 7 t w Y 7 u d a d Q B }  .B O.B ",
"O.B } g O.g l q 7 4 7 8 8 : ; 8 r 8 ; ; ; - q 4 < $ $ < - 7 u 8 7 7 : 8 4 y 8 e 4 i u 4 H : k q H 7 p d ; r p r t B O.D D O.B O.",
"( ( ( j H A p u 4 J u p e 7 7 : w e 4 4 8 4 8 6 8 5 - : : 4 5 8 w 7 : 4 H h 4 p 7 7 4 4 k 8 t h 9 l 3 a l 8 P w R f T A J ( ( ( ",
"B O.B O.i  .t e r k , f p 7 8 * p 4 q 8 @ & : - ; : 1 ; & r : w 7 t s w 4 n r r y w * 8 y , i 8 8 p y 8 r n r Q m ^ B R  .B O.B ",
"O.B O.d ..# H 8 P : x p p P r o 8 7 4 e ; 4 4 7 , e % 7 : p , u , t 4 < n y n 8 t 7 < e k i 7 V k y ` r % g t d ^ m O.D D O.B O.",
"B O.B } i ^ y 7 1 H u z s 7 5 q 8 4 7 % 4 4 p 7 t 4 : 8 , , Y w p 7 s < e l i H w : q s r u u k 4 w d a r 8 6 I d  .m  . .B O.B ",
"B O.B O.B I u = u s 4 7 w 8 4 , e e p : 7 w l 7 < 8 8 8 ; w s u 7 8 r d 0 @ g 0 e Q 4 Y u t e w , ..r ` 8 n i Q m O.g  . .B O.B ",
"O.B O.B O.d O.i p B P w e w 1 , , ; 8 > % ; : 7 e : ; 8 r l y f 8 + , H a , z : l 8 P w k i P y P 3 n r 7 g n q I B O.D D O.B O.",
"B O.B O.B } B H i H d a a r v 1 : r f r = ; 7 , 5 7 q , n 8 u w 8 * z h r a r ; r n r x y n 7 P a j d ^ w , g * m O.B  . .B O.B ",
"D  .D  .D I m H h w m x r h 8 7 w y e 5 7 4 , p ; 8 8 $ q 8 H d v u x a f R e ^ d _ p Q h x h 8 d I d t y F 8 p D  .D ( ( D  .D ",
"O.B O.B O.B O.d ^ m W V r p d p u O.d l , 7 w u 4 4 w 9 i Y d z w l r l l d s u l y f d x 8 r r 7 1 p m k d } B O.B O.D D O.B O.",
"B O.B O.B O.B O.B } r k v d P y P q z - q , s : s 7 n 4 8 u H 1 [ w j f f k q [ y _ y ^ d ` u x d a i 1 i I B O.B O.B  .O.B O.B ",
"O.B O.B O.B O.B ..i H D h l y x i n u n 8 8 , p w a d s y P d ..w p m I J d u d Q A Y g W d | 8 l m v d { N } B O.B O.D D O.B O.",
"O.B O.B O.B O.B ` B W a y | d u r r t s q 8 8 e w I y 7 y { i ..d O.g  . .g O.B O.B [ B l r Q d ` m ` B v g O.B O.B O.D D O.B O.",
"B O.B O.B O.B O.B O.i _ v t ` ; s r ^ - a d U e n i a 8 n r O.d ..g ..D D O.g } i O.B | B [ m I p O.B _ d O.B O.B O.B  . .B O.B ",
"O.B O.B O.B O.B O.B } h d { 4 s d 7 y p w H y t 8 P i | m ..d { B O.d E  .B O.B O.B O.B O.m O.B  .B O.B ..B O.B O.B O.D D O.B O.",
"O.B O.B O.B O.B O.B O.D h ` i ^ d ..d Q e ` r b y Q w Q B O.B O.B O.B  . .B O.B O.B O.B O.B O.B ^ B _ d O.B O.B O.B O.D D O.B O.",
"B O.B O.B O.B O.B O.B  . .m O.g H w ` 8 I d b d ..u z m | B O.m O.B O.D D O.B O.B O.B O.B O.B O.B O.B O.B O.B O.B O.B  . .B O.B ",
"O.B O.B O.B O.B O.B O.D D | g H B { d P d Q 8 U d } B O.B O.B O.B O.B  . .B O.B O.B O.B O.B O.B O.B O.B O.B O.B O.B O.D D O.B O.",
"B O.B O.B O.B O.B O.B  . .B O.d O.B ..m ..d l d O.d O.B O.B O.B O.B O.D D O.B O.B O.B O.B O.B O.B O.B O.B O.B O.B O.B  . .B O.B ",
"B O.B O.B O.B O.B O.B  . .B O.B O.B O.B O.d O.g O.B O.B O.B O.B O.B O.D D O.B O.B O.B O.B O.B O.B O.B O.B O.B O.B O.B  . .B O.B ",
"O.B O.B O.B O.B O.B O.D D O.B O.B O.B O.B O.B O.B O.B O.B O.B O.B O.B  . .B O.B O.B O.B O.B O.B O.B O.B O.B O.B O.B O.D D O.B O.",
"B O.B O.B O.B O.B O.B  . .B O.B O.B O.B O.B O.B O.B O.B O.B O.B O.B O.D D O.B O.B O.B O.B O.B O.B O.B O.B O.B O.B O.B  . .B O.B "
};
