/* XPM */
static char *_ebc4d8f1f0d4f5cc1422bdec2fca72azlZAslywUbHzwk5p[] = {
/* columns rows colors chars-per-pixel */
"64 64 250 2 ",
"   c #150C04",
".  c #160C0A",
"X  c #18110A",
"o  c #22120A",
"O  c #30170C",
"+  c #39271C",
"@  c #2D1F24",
"#  c #372825",
"$  c #35322D",
"%  c #4F2A16",
"&  c #472B1B",
"*  c #522D1A",
"=  c #422B21",
"-  c #552D22",
";  c #483628",
":  c #4D352B",
">  c #573728",
",  c #5E3B2B",
"<  c #463935",
"1  c #4C3C33",
"2  c #573C33",
"3  c #633826",
"4  c #623C2B",
"5  c #633D31",
"6  c #45402E",
"7  c #5B422A",
"8  c #4A433C",
"9  c #4B493A",
"0  c #5A4537",
"q  c #54433C",
"w  c #624334",
"e  c #684532",
"r  c #644B36",
"t  c #684B38",
"y  c #685136",
"u  c #6D513D",
"i  c #74533C",
"p  c #4C4B46",
"a  c #574A42",
"s  c #58544B",
"d  c #575A54",
"f  c #5B5D54",
"g  c #684B45",
"h  c #675549",
"j  c #745543",
"k  c #765846",
"l  c #755C4A",
"z  c #7A5B4A",
"x  c #685E55",
"c  c #755F54",
"v  c #5F6259",
"b  c #79624C",
"n  c #7D634D",
"m  c #66655C",
"M  c #7A6455",
"N  c #796B55",
"B  c #74645C",
"V  c #7C6A5A",
"C  c #686964",
"Z  c #796C65",
"A  c #79756B",
"S  c #6A6E72",
"D  c #787575",
"F  c #7B7A73",
"G  c #82624D",
"H  c #886C4A",
"J  c #936F43",
"K  c #8C7649",
"L  c #957A4B",
"P  c #846653",
"I  c #896756",
"U  c #8B6A56",
"Y  c #846B5C",
"T  c #8C6C5A",
"R  c #966A54",
"E  c #926D5B",
"W  c #8A7458",
"Q  c #8C745D",
"!  c #977956",
"~  c #93715E",
"^  c #A47D4C",
"/  c #866D63",
"(  c #956D63",
")  c #847364",
"_  c #8C7364",
"`  c #85746B",
"'  c #887868",
"]  c #8C7A6A",
"[  c #957462",
"{  c #997564",
"}  c #947C65",
"|  c #9C7A64",
" . c #987569",
".. c #927B6B",
"X. c #9C7C6B",
"o. c #847B74",
"O. c #8C7C72",
"+. c #847D79",
"@. c #967E73",
"#. c #A27D6D",
"$. c #A47C71",
"%. c #7C8279",
"&. c #9B8456",
"*. c #918853",
"=. c #AD8F51",
"-. c #A8885B",
";. c #AE9258",
":. c #94846A",
">. c #9D836C",
",. c #888378",
"<. c #958373",
"1. c #9C8574",
"2. c #948D76",
"3. c #9A8979",
"4. c #A58767",
"5. c #B38B69",
"6. c #A89367",
"7. c #B29365",
"8. c #A88974",
"9. c #A28A7B",
"0. c #A89577",
"q. c #B49579",
"w. c #B8A46F",
"e. c #C39D6F",
"r. c #CEAB6C",
"t. c #CAAA76",
"y. c #CCB179",
"u. c #D6B87C",
"i. c #E1BB74",
"p. c #F6CF73",
"a. c #FBD67A",
"s. c #FCE57D",
"d. c #898887",
"f. c #8C8B85",
"g. c #958B88",
"h. c #9D9687",
"j. c #94928B",
"k. c #899190",
"l. c #949494",
"z. c #9A9996",
"x. c #A79685",
"c. c #AE958E",
"v. c #B49B85",
"b. c #A59B97",
"n. c #BCA58B",
"m. c #B0A88D",
"M. c #A8A598",
"N. c #B7A898",
"B. c #9A9DA2",
"V. c #9DA1A0",
"C. c #AAA7A7",
"Z. c #ADACA5",
"A. c #B7AAA5",
"S. c #B5B3AC",
"D. c #B9B4A9",
"F. c #ACACB1",
"G. c #BBB9B4",
"H. c #C4A689",
"J. c #CFB78C",
"K. c #C5AB97",
"L. c #C7B396",
"P. c #C5B8A8",
"I. c #D0B9AC",
"U. c #C3BAB5",
"Y. c #CABEB4",
"T. c #BFC0B8",
"R. c #DDC48A",
"E. c #D5C798",
"W. c #EACA8F",
"Q. c #F2CE88",
"!. c #F9D787",
"~. c #FEDB85",
"^. c #FDDC8A",
"/. c #EBD89B",
"(. c #F8D894",
"). c #FCE38B",
"_. c #FAE688",
"`. c #FEE492",
"'. c #FAE59B",
"]. c #D8C9AD",
"[. c #C7C4B8",
"{. c #D3CCB1",
"}. c #D6C9B7",
"|. c #E3C9AA",
" X c #EDD8A7",
".X c #F4D8A4",
"XX c #E8D9B9",
"oX c #F6E3A7",
"OX c #EDEAB9",
"+X c #F9E7B8",
"@X c #CCCBC5",
"#X c #CBCFCD",
"$X c #D5CCC3",
"%X c #D9CCC9",
"&X c #D8D4C9",
"*X c #D8D8D5",
"=X c #DDDDDD",
"-X c #E5D9C9",
";X c #F3DDCA",
":X c #E4DDD4",
">X c #EADDD6",
",X c #E3DEDC",
"<X c #EAE3CC",
"1X c #F8E9C8",
"2X c #FDF5CB",
"3X c #E4E5D5",
"4X c #ECE1D5",
"5X c #ECE9D4",
"6X c #E4E3DC",
"7X c #EBE4DB",
"8X c #EBEADC",
"9X c #F6E9D6",
"0X c #F3ECDD",
"qX c #FCF6D8",
"wX c #FCF4DC",
"eX c #DDDEE4",
"rX c #E6DFE5",
"tX c #DAE3E8",
"yX c #E5E5E5",
"uX c #E9E5E3",
"iX c #ECEAE5",
"pX c #E4E6EB",
"aX c #E7E8E8",
"sX c #E5EAEA",
"dX c #EBEBEB",
"fX c #F3ECE4",
"gX c #F8EBE5",
"hX c #F3EDEB",
"jX c #ECF1EB",
"kX c #F3F2E4",
"lX c #FBF3E3",
"zX c #FEFAE5",
"xX c #F4F2EC",
"cX c #FCF4EC",
"vX c #F6FCEC",
"bX c #FDFBEC",
"nX c #EBECF3",
"mX c #F3EEF5",
"MX c #ECF2F3",
"NX c #EEF9FB",
"BX c #F4F4F4",
"VX c #FAF5F3",
"CX c #F6FBF6",
"ZX c #FDFBF4",
"AX c #F4F5FA",
"SX c #F9F6FA",
"DX c #F6FAFB",
"FX c #FCFCFC",
"GX c #FDFDFC",
"HX c white",
/* pixels */
"HXyXHXyXHXyXFXdXxXFXyXHXyXHXyXHXyXHXyXHXyXHXdXBXBXdXHXaXHXyXHXyXFXyXHXaXHXaXBXBXdXSXaXHXyXSXyXHXpXHXyXHXdXHXaXBXBXdXSXdXHXaXHXdX",
"dXSXdXBXjXBXjXSXMXBXBXdXBXdXSXdXCXdXBXdXSXdXBXMXhXBXdXBXhXCXdXFXdXSXaXFXdXCXBXBXBXjXBXdXSXdXCXdXBXaXSXdXBXdXBXxXBXSXdXHXdXBXdXBX",
"yXHXaXHXdXSXdXFXSXyXHXyXHXyXHXaXSXaXHXaXHXdXBXhXBXBXaXFXyXHXdXSXdXSXyXSXdXHXdXBXBXdXFXyXHXdXFXyXSXaXFXaXHXyXFXDXdXBXdXHXaXSXaXHX",
"HXyXHXyXSXdXCXxXdXHXdXBXyXHXaXSXyXHXaXSXyXCXBXdXdXBXSXaXHXdXHX=XDXdXFXaXHXdXBXdXdXDXdXSXyXFXaXHXaXFXyXCXdXSXyXdXDXBXBXdXFXaXCXaX",
"yXFXaXHXdXCXdXAXBXdXSXaXCXyXSXaXFXyXSXyXHXpXHXdXBXCXyXFXdXFXaXHXyXHXyXHXaXBXxXmXBXdXBXdXSXyXHXyXHXyXSXyXDXyXCXhXhXCXyXHXaXFXaXHX",
"yXFXyXFXyXFXdXHXBXBXFXaXHXhXFXyXSXpXDXMXSXpXAXkXiXZXuXSXjXcX6XNXpXFXaXAXaXFXhXVXBXdXSXdXHXdXSXyXFXaXSXaXSXaXHXdXBXFXyXHXdXFXyXFX",
"HXyXSXyXHXyXSXyXdXSXaXFXyXDXyXHXdXFXaXHX&XyXiXcXSXmXHX,XVX+ 2 aXHX,XZXdXFXdXVXMXdXBXiXSXuXFXyXHXaXHXyXFXaXHXyXBXBXdXSXaXHXaXHXyX",
"yXHXaXHXdXSXdXHXBXdXCXaXHXyXFXyXHX,XZX&XA l 4XjXmXFXyXHX,X+ : g.yXHXtXFXpXFXmXmXmXhXVXfX,XuXHXyXFX6XHXyXCX=XSXdXdXSXyXHXyXFXyXHX",
"dXSXdXBXMXBXdXBXBXBXBXdXBXdXSXdXhXhXfX,.N i n 5X[.VXnXAXaX3XN.8XNXAXmXAXaXfXhX&XD.M = 2 a hXBXdXSXyXBXdXBXdXBXBXBXSXjXSXdXBXdXSX",
"HXyXFXyXHXdXSXdXjXSXyXHXyXFXyXHXhXZXx.] H ! K K <Xo.VXrXCXV 1.:XcX7X>XA.Y + w w 5 5 5 2 I.Y.uXHXyXHXyXHXaXHXyXBXBXdXSXaXHXdXHXaX",
"aXHXdXFXaXHXaXFXSXdXHXdXHXaXHXyXSXA.X.W W x.9.&.W ].d.mXxX/ R l - > 3 3 , 4 4 4 4 3 4 T M <.FXyXHXyXHXaXHXyXHXBXBXSXdXHXaXHXaXHX",
"BXdXCXdXBXdXSXxXxXBXdXBXaXBXBXMX{.9.W L x.p %.*.&.L v.4X1 > - , > 3 5 5 3 4 5 4 4 w 2 L.V :.nXxXMXxXjXBXdXBXdXBXjXdXBXBXBXdXCXdX",
"HXaXSXdXBXdXSXjXMXxXdXFXaXFXiXfX0.Q ! t.}.$ S ,.-.&.K K lX* > 3 3 5 , > 4 4 4 4 4 5 9.0.H :.mXHXyXHXaXFXdXHXdXSXBXdXSXaXHXaXSXdX",
"=XHX6XHXyXFXdXSXBXyXHXyXHXaXhXx.,.L =.).lX-XN.6.-.>.} } +.kXh ; 5 > 4 5 , 4 4 5 , > L.].*.} 6X6XSXdXHXaXHXaXHXBXBXCXaXHXyXHXaXHX",
"HXyXHXyXCXdXBXBXBXBXaXSXmXcXc.<.*.=._._.oXoX}.].N.S.A.b.j.,.$X2.: 5 3 3 4 4 5 5 , n.0.r t.Q m.FXaXSXdXBXdXSXdXBXxXaXSXdXFXyXHXyX",
"DXdXAXdXFXdXSXdXBXBXdXSXdXD.3.M 0.XXqXcXHX6X#XF.B.C.C.h.3.,.V _ >X- 3 3 3 5 4 , , n.H.m./.U :.xXdXCXdXSXdXCXdXBXmXBXBXMXBXdXBXhX",
"yXFXyXHXaXSXdXSXVXhXBXdX@Xx.2.Y.@XG.M.M.E.N.E.E.R.6.7.;.;.4.B &   9X> 4 w 3 4 3 &X6._.]._.U >.aXHXeXHXaXSXaXSXxXBXFXyXHXyXSXaXHX",
"FXaXFXaXCXdXCXdXMXSXfXcX,.B 1.n.K.R.u.oXOX+X1X1X1X'.7.6.5.9.,.% . = 2 5 e e , 7 h.vX'._.s.! } 8XyXHXyXFXdXHXdXSXBXaXSXyXHXyXFXyX",
"dXBXdXBXBXBXhXBXjXfX= Q N < 6.!.).s.oXcX3XB.%.C 2X_.'.7.7.0.,.O & - 3 3 3 , r -X:.:.qX'._.w.W [.VXBXxXhXBXBXBXBXBXBXMXBXxXBXjXBX",
"dXSXaXFXdXBXdXDXbX: w 7 w + .Xa.)._.oXb.6 m 9 %.qX_.).'.;.7.A * - > , > 0 q ; 8.r.w.:.<X+Xs.W ,.VXuXDXdXBXyXDXhXBXCXdXSXaXFXyXHX",
"HXdXFXyXHXyXBXdX7 4 4 4 e > oX).s.s./.{.m %.F j.2X^.~.).~.y.= * Z b.@X,XVXmX;X&.).~.R.*.&X+XW :.>XHXyXHXaXHXaXBXBXaXFXyXHXaXHXaX",
"yXSXyXSXjXNX&X3 e 4 3 e + + .X~._._.OXXX9 z.l.@XlX`.^.(.a.+XZX<XK. .R G Z d.4.y.!.~.~.W.:.m.N.' lXdXSXyXSXaXBXaXBXBXdXCXaXSXdXBX",
",XHXyXSXuX:X2 5 7 7 > * 7 XXoXa.(.(.(.q.m f.d %.9XW. Xe.(.|.A G H K H J g.l.-.(.~.~.^.(.E.2.m.Y $XaXFXdXBXyXCXdXBXHXaXHXyXHXaXSX",
"HX=XHXrXU.w 4 2 ; : ] P.-Xb oXa.7.-.* % C k.m C >X, + 5 o w } J K L -.! C.b.y.^.^.~.~.)./.5Xw.G O.SXtXFXyXFXaXBXdXyXSXyXHX=XHXaX",
"aXHXaXaX@X-XlXbX4Xc.@.V P 0 6.!.; 2 2 2 M.G.j.d.5Xe 0 y w _ ' ^ -.-.4.4.F.Z.Q.~.~.~.!.~..XOX+Xn / iXSXaXSXaXBXdXxXSXdXSXdXHXdXFX",
"dXBXBXdXhXAX+.H H J J H ! r P .X7 7 : 2 o.z.S.A fX% * , , @.' -.-.-.;.-.C.,X(.~.!.!.~.!. X<XoXK ) hXSXdXBXjXSXBXBXBXjXBXdXBXjXBX",
"HXyXSXaXFXpXz.! &.L &.&.} 0 :.(.r.e.H.n.A C.S.F 2XQ.y.-.! t./.i.Q.!.!.).HXZX/.p.Q.a.~.!..XOX`.w.Z <XpXHXdXHXyXdXBXdXSXaXFXyXHXyX",
"yXHXyXHXaXFXC.4.-.-.-.5.R.0.j.|.u.t.E.[.F M.G.A qXQ.R.&.<..X+X^.!.)._.'.ZXZX.Xa.p.a.~.~..X<X/./.Z 2.SXyXHXyXHXBXdXSXdXHXyXHXaXHX",
"CXaXSXdXSXdXZ.=.=.=.r.W.^.q.M.1Xu.u.E.2X=X*X@XD qXu.n.H.N..X+X~._._._._.bXkXbXXX.X(.a.a.R.+XoXoXC.[.mXHXdXFXdXBXBXaXSXaXHXyXFXdX",
"HXyXHX,XHXpXZX'.~.~.).~.R.6.m.+XoXoX+XOXf.C.G.F 2X6.L.n.|.(.+X'.).`.'.'.bXkX@ @ bXOXQ.(.a.a.a./.,XZXrXHXdXHXaXFXBXdXFX6XFXrXHXyX",
"yXHXyXHXpXAXZX`._._._._.-.0.M.XX+X X9X&XyXCXZXxXgX1X:XI.-X;XwX+X2X2XqXzXFX0Xq 9 ; $ kX-XJ.!.~./.HXtXFXyXFX,XHXjXBXSXyXHXyXFXyXHX",
"HXyXSXaXFXnXbX_.).`.).`.;.v.#X5XxXZXtXtXaX,XdXyXrXrX*X%X*XhXNX6X*X*X*XtXAXqX7 0 g q < $ vXqXw./.yXFXtXFXaXHXaXHXiXtXHXyXFXyXSXpX",
"HXyXDXdXSXMXCXqX9XwX0X5XM.F.*X,.o.< + + 1 ` DX$X$.x.c t a g [.; ; 9 2 : DXcX1.a a a p $ ; # SXHXb.BXdXVXdXHXdXBXDXxXCXaXFXdXBXaX",
"yXSXyXHX:XAXmXfXVXBXxX$Xo.l.xX' @._ <.9.@.b.DX$X#.8.v.q.0.K.lX4.4.:.T j aXfXv.h z g h g h 1 ; o xXxXz.iXHXdXFXSXdXDXaXCXdXHXyXHX",
"HXdXHXyXHXmXZX[ ...._ Q 9 z.kXQ -XU.z.d.N.N.HXY.+.d d.k.M.9.5XU O . @  .HXZX].Y.%XuXyXG.Z.z.B.l.f.F :XZXg.hXdXmXBXaXSXaXHXaXHXyX",
"BXdXSXdXmXDXzX!  . .E 8.h G.uXM uX$ p $ VX` yXc.` x G.h C h.D.g o . X Z BXfX].Y.A.c.d.o.x < $ 8 # < < X aXHXC dXSXBXBXdXSXdXSXdX",
"yXSXyXHXyXBXrXX.{ [ X.( r z.CX..7Xq d.C hXc.FX[.d.d T.C %.N.lX3 .     @.HXZXK.<.>.>.X.X.>...; 8 1 8 q 8 8 $ dXFXS dXdXDXaXFXaXFX",
"HXyXHXyXHXDXZX{ { R { E ' Z.FX] gXx j.%.VXN.SXY.C.l.@Xj.B.n.cXi X . o ` FXbXv.X.E P P k z I {  .j h Z c c $ d.` :XhXl.=XBXyXFXaX",
"dXBXdXCXBXHXcX{ E #.| #.] z.fX<.kXs f.d bX3.iXM.%.f S.m d.X.>Xi     . / ,X3X:.(  . .#. .X.X.1.X.9.@./ x h < z.l.a o A.hX,XxXdXBX",
"yXHXyXFXyXMX&X} E T T I Y C.VXM lXm f.v cXA.ZXP.%.C T.v k.K.cXi + . X ` SXbXK.#.1.9.9.x.9.1.X.Y l Y 3.` h $ F.F.C < # + + cXhXHX",
"HXaXHXaXCXDXVX[ ~ ~ E ~ T d.ZX<.gXs j.m kXN.VXN.%.v S.d d.L.bXi : . X Z HXbXL. . .}.$X$X}.$X}.[.U.P.A.A.-XM yXG.g.: 2 1 q 8XCXuX",
"aXCXaXSXyXFXfX} | ~ | ~ ' z.VX] lXZ l.m vXN.xXN.A s T.C B.K.cXt : . . Z BXfXn.$. .M.f.f.f.d.d.d.d.d.f.+.-XN iXxXo.h.s q B FXaXHX",
"iXSXdXSXnXAXcX[ ~ E E E Y j.ZX..cXm M.d fXA.HXm.%.f [.s k.g.bXy ,   . Z.ZXbXK.( Q &XZ.S.S.S.Z.Z.S.S.Z.l.9X` ZXFX-X}.~ u [.CXaXSX",
"HXyXHXyXSXHXcXX.~ #.~ X._ j.ZX .cXs z.f 0XA.FXN.S s D.s k.N.lXi 2   s M.FXbXH.( Y 0X8X6X=X=X6X=X6XaXiXl.9XZ ZXFX>X<X} P }.tXHXaX",
"aXHXyXFXdXxXgXE ~ E E ~ I z.bX3.:X0X:XiX-XP.HXN.gXgX>XgX4XI.bXi 2   F M.bXbXL.$.:.bXkX8XiXjXkXkXkXkXxXB.bXZ ZXDX5X5X} P -XHXyXHX",
"dXBXxXBXMXCXcXE E { ~ E M A ZX .x.Z V c %Xx.yX@.x.9./  .Y H.9Xe 7 U.Z.h.8X5Xq.R Y bXZXbXZXbXCXbXZXbXvXV.bXO.&X*X[.;X| U ) xXxXBX",
"HXaXFXyXFXCXlX~ [ { { { Y C ZX../ X. .8.Q P.FXN.8.v.8.e.0.H.lXj & M.U.M.ZXzXL.#.V cXZXZXZXZXZXxXkXkXkXl.cX` ZXZX0XQ E E @.aXHXyX",
"yXHXuXFXyX&XN.T ~ Q { [ Y x ZXE T E E { { N.SXP.5.q.#.H.! 8.wXj 2 o.A.b.bXzXI.4.} qX8X8X8X8X3X8X8X6X3Xz.cXV HXHX>X~ #.E ..FXiXHX",
"VXdXCXdXBXB l z U t r j l 8 }.{ Q E #.X.U 9.#Xx.| 5.4.q.q.K.7Xh : o.M.:X&X-X} U b qX:X5X8XkXvXbXZXvXzXz.ZXT CXDX0XT G R _ aXBXnX",
"FXaXFXaXSX' t k b h l u l 8 lXP U U X.X.! D.DXL.5.H.8.c.-XZXcXA h j.D.bXwXwX} ~ / zXzXbXbXbXZXbXbXbXzXC.xXI xXxX>XE ( R / uXDXaX",
"aXHXaXZXuXc t P u l j r b q bX~ { { U G U P.CXc.R 8.I.VXFXHXBXkX[.8XbXzXzXwX| | } lXlXbXbX0X8X8X0X5X5Xz.vX{ vXZXlX( [ I j cX7XZX",
"DXhXVX:X$Xh z j n w r j u ; &XU I P [ { | Y.xXN.N.cXFXHXFXHXSXcX#X*XzXzXzXqXR H G wX0X5X5X3X-X3X3X-X5Xz.vX4.bXCXlXT G k l T } ,.",
"MX,X>X}.{.n.v.@.P k n n k 1 B U P z G T ~ P.BXzXVXBXDXNXHXHXHXyXaXjXwXqXwXqX7 i G l &X5XkXzXzXzXzXwXqXz.8X#.8XvX9Xu j n U U H dX",
"aXFXyXFXpXSXdXSXNXhXB ' _ Y Y Y P n n j z M N.-X&X&X8XvXCXcXZXZX3XlX2X1XqX9Xy z r t ;XqXwXqXzXzXqX0X5X,.M j t r b l M I U Q %XHX",
"HXaXFXaXHXdXSXdXBXBXhXZXfXZX:X6X%X$XD.b.O.Z Z o.' ] <.9.9.x.N.I.P.2X0.}  ./ _ ] / <.Z ' ' <.3.0.x.v.N.' l k k G z I T T Q x.ZXyX",
"dXBXhXBXdXAXdXBXVXdXAXaXSXdXSXdXBXhXVXMXBXBXhXhXlXgX7X8X&X&X[.A.h.A B B %XcXiXBXhXfXCXkXxXBXCXxX0XiX3X:X&XA.A.h.` ) ' X.3.xXMXVX",
"yXFXaXFXdXCXdXBXxXMXFXyXDXaXSXaXSXaXFXdXFXdXFXdXnXFXnXHXnXHXaXHXaXHXaXAXdXCXMXjXBXxXBXaXFXtXFXsXFXtXHXtXSXpXAXiXxXvXiXcXfXDXaXFX",
"HXyXHXyXHXyXHXdXxXFXaXZXyXFX3XHXuXFXaXFXyXHXdXBXmXdXFXpXZXyXFXaXFXyXFXaXFXiXBXMXhXSXaXFX6XHX6XHXyXFX=XZXuXHXdXSXBXmXSXdXDXaXFXaX",
"yXSXyXAXdXSXdXCXMXmXCXaXDXyXFXyXAXyXSXaXCXyXSXaXmXHXaXSXdXFXdXSXrXSXyXSXyXFXBXdXMXdXBXyXFXaXSXyXHX6XFXaXCXyXBXaXBXSXaXSXaXFXdXFX",
"6XHXyXHXdXHXdXSXBXdXHXyXHXyXHXyXHX=XHXyXHXyXCXaXdXCXaXFXyXHXaXFXyXHXyXFXyXHXMXBXBXdXSXyXHXaXHXyXHXyXSXyXSXyXBXaXSXHXaXHXyXFXaXFX",
"HX=XHXyXHX,XDXyXdXHXyXHX=XHX=XHXaXHXyXHX=XHXaXBXSXBXHXyXHXyXHXdXHX=XHXyXHX=XCXdXdXFXaXHXyXSXyXHXyXBXaXHX6XSXpXBXdXyXHX=XHXtXFXaX",
"yXHXyXDXdXSXdXSXBXMXBXdXAXaXSXyXBXdXBXdXHXaXBXBXBXBXdXHXdXFXyXHXyXHXaXHXaXBXBXmXBXhXBXdXSXaXFXyXFXyXCXaXBXyXSXMXdXCXdXHXyXDXdXHX",
"dXBXdXBXdXCXdXBXBXdXBXjXBXBXBXxXBXdXBXdXBXBXBXBXBXBXdXBXdXBXdXBXBXBXBXdXdXBXxXBXBXMXBXjXBXBXxXBXBXdXBXBXBXdXBXBXBXBXdXBXxXFXdXBX",
"HXaXHXaXHXyXSXdXBXHXyXHXyXSXaXHXyXHXaXHXaXSXdXBXBXdXHXaXHXaXHXaXCXaXHXaXHXyXSXMXdXSXaXHXyXHXyXSXyXHXyXHXdXHXdXSXBXdXSXyXHXyXHXyX"
};
