/* XPM */
static char *_a989251de1d4b6acafd6cb65ac73502BVvht0ePy2qteH8d[] = {
/* columns rows colors chars-per-pixel */
"64 64 166 2 ",
"   c None",
".  c #010101",
"X  c #0C0C0C",
"o  c #130608",
"O  c #141414",
"+  c #1B1B1B",
"@  c #200C0E",
"#  c #211F1F",
"$  c #1D211E",
"%  c #1F2420",
"&  c #222322",
"*  c #242826",
"=  c #272C2A",
"-  c #292E2C",
";  c #2B312E",
":  c #302F30",
">  c #2E3331",
",  c #323534",
"<  c #333936",
"1  c #363C39",
"2  c #3A3C3B",
"3  c #430D12",
"4  c #540610",
"5  c #4A181A",
"6  c #5C1C1F",
"7  c #531A1B",
"8  c #770B19",
"9  c #720315",
"0  c #5F1E21",
"q  c #531F21",
"w  c #4F2324",
"e  c #412929",
"r  c #5C2325",
"t  c #512728",
"y  c #5E2729",
"u  c #5E2B2C",
"i  c #552425",
"p  c #403132",
"a  c #493637",
"s  c #433B3C",
"d  c #4C3B3C",
"f  c #543839",
"g  c #632527",
"h  c #632728",
"j  c #642A2C",
"k  c #6F3638",
"l  c #733A3C",
"z  c #3B413E",
"x  c #5B3F40",
"c  c #3D4341",
"v  c #434443",
"b  c #454947",
"n  c #474B48",
"m  c #4B4D4B",
"M  c #5C4B4C",
"N  c #4D504E",
"B  c #50504F",
"V  c #4F5450",
"C  c #545555",
"Z  c #5B5252",
"A  c #555856",
"S  c #5C5C5C",
"D  c #7B4244",
"F  c #7B4648",
"G  c #704F51",
"H  c #635152",
"J  c #725859",
"K  c #5D625E",
"L  c #636363",
"P  c #6B6B6B",
"I  c #737373",
"U  c #777E79",
"Y  c #7B7B7B",
"T  c #820313",
"R  c #9C0214",
"E  c #9B0218",
"W  c #A10213",
"Q  c #AA0212",
"!  c #81484A",
"~  c #804346",
"^  c #874E50",
"/  c #884F51",
"(  c #825759",
")  c #8C5759",
"_  c #8A5253",
"`  c #935F60",
"'  c #956061",
"]  c #9B6264",
"[  c #9B6668",
"{  c #907174",
"}  c #907F7F",
"|  c #A36A6C",
" . c #A66E70",
".. c #A77576",
"X. c #AF7779",
"o. c #AC7375",
"O. c #7F807F",
"+. c #838383",
"@. c #888688",
"#. c #878888",
"$. c #8C8C8C",
"%. c #8E938E",
"&. c #8C8D90",
"*. c #939393",
"=. c #9B9697",
"-. c #969C97",
";. c #9C9C9C",
":. c #B48081",
">. c #B98183",
",. c #A68C91",
"<. c #AD9195",
"1. c #B3989E",
"2. c #A3A4A3",
"3. c #A6AAA6",
"4. c #A5A9A5",
"5. c #A7AAA7",
"6. c #AAABAA",
"7. c #ABAFAB",
"8. c #A9ACA9",
"9. c #ADAEAD",
"0. c #ABABAB",
"q. c #B5AEAE",
"w. c #AFB2AF",
"e. c #ADB0AD",
"r. c #AEB2AF",
"t. c #B0B3AF",
"y. c #ADB0B0",
"u. c #B3B7B3",
"i. c #B1B4B0",
"p. c #B4B4B4",
"a. c #B5BAB5",
"s. c #BABABA",
"d. c #BCBCBC",
"f. c #C28B8C",
"g. c #C09494",
"h. c #C1BABA",
"j. c #BFBFC1",
"k. c #C4C5C5",
"l. c #C3C3C3",
"z. c #CACACA",
"x. c #CECECE",
"c. c #CCCCCC",
"v. c #DFC8C8",
"b. c #D2D2D2",
"n. c #D5D5D5",
"m. c #D3D3D3",
"M. c #D9D7D9",
"N. c #DADADA",
"B. c #D8D8D8",
"V. c #DDDDDD",
"C. c #DFDFDF",
"Z. c #DCDCDC",
"A. c gray89",
"S. c #E2E2E2",
"D. c gray88",
"F. c #E4E4E4",
"G. c #E7E7E7",
"H. c #E6E6E6",
"J. c #E3E3E3",
"K. c #E9E8E9",
"L. c #EBEBEB",
"P. c #EDEDED",
"I. c #EBEBEB",
"U. c #F1F1F1",
"Y. c #F2F2F2",
"T. c #F8F8F8",
/* pixels */
"                                                            N.G.G.L.G.J.B.                                                      ",
"                                      F.P.P.P.P.K.K.P.K.K.K.G.G.G.G.K.K.K.K.L.L.I.P.P.Y.Y.T.P.                                  ",
"                            k.D.F.F.F.F.F.F.F.J.J.D.D.D.V.N.n.x.z.k.z.m.B.D.J.J.F.J.F.F.G.K.P.Y.Y.K.                            ",
"                          B.n.n.B.Z.Z.Z.z.*.A V m b b m N N n n b b b m m N m b v n m V K k.F.F.G.0.Y.                          ",
"                        B.c.x.;.C m m N v z < z c c c c z c z z z z z z z z z z z z 1 1 2 c N v b b N.U.                        ",
"                        n.z.v 2 2 1 c c z < z z 1 1 < < < < < < > < > < < < < < 1 1 1 2 2 c 1 < 1 2 n.C.                        ",
"                      B.B.l.2 < 1 z 1 < < > ; > > < z 1 < < < < < > < < < < < 1 < > > > < < 1 < > , k.H.C.                      ",
"                      J.n.s., , z < > < < < < > > z -.-.3.7.-.> z 3.4.4.4.4.%.O.K n c 1 1 z > < - > p.C.H.                      ",
"                      D.m.4.> - < +.3.e.z = < 3.e.e.8.3.8.N N N N N N 3.8.4.4.4.c - ; - 4.4.4.z = - q.b.F.                      ",
"                    J.D.z.+.- = 7.e.e.v = = = z e.r.r.e.e.;.;.;.-.;.;.7.8.3.e.7.; - - - V 4.2.4.* = 9.x.C.x.                    ",
"                    K.V.s.L = * r.7.u.; = = = ; r.e.y.u.r.e.r.e.3.e.e.e.e.7.e.7.- = = - > 7.4.$.& * 0.x.M.s.                    ",
"                    G.V.i.*.* * %.u.u.; = = = ; u.u.r.r.i.y.u.; > i.i.r.r.e.8.3.- - - - ; 8.y.& & * 4.k.n.V.p.                  ",
"                  U.H.N.0.2.& & & b 1 - = = = = a.a.a.a.a.u.; - ; ; i.r.r.i.r.n = = - = & % % % & ;.2.0.b.N.H.                  ",
"                  S.F.n.2.2.2.L ; * $ $ $ $ $ * , z C P O.*.5.p.d.d.d.d.a.r.3.;.%.+.U U #.;.i.y.4.2.;.6.c.N.C.                  ",
"                U.F.S.b.0.2.4.9.a.h.j.j.d.d.k.z.c.x.x.x.x.b.b.x.x.x.x.x.b.b.b.m.x.c.z.z.z.z.z.k.s.y.0.0.z.n.x.F.C.%.            ",
"          @.p.P.K.S.Z.x.y.p.j.z.x.b.z.s.9.4.4.j.N.K.K.F.V.B.n.b.n.n.n.n.n.N.J.F.N.l.2.$.;.s.z.Z.Z.x.l.s.z.n.C.C.H.F.K.          ",
"        F.S.S.D.z.Z.M.n.z.c.z.M.I.U.U.P.P.U.P.D.V.B.B.n.m.b.l.*.$.b.b.b.n.n.M.n.B.P.Y.Y.K.V.B.M.n.x.s.l.n.b.n.*.C.S.K.G.        ",
"      S.N.n.b.x.z.c.s.z.Z.K.K.P.I.I.P.U.P.P.P.P.P.P.P.P.P.P.P.z.P.P.P.U.U.Y.Y.U.P.K.K.D.N.n.M.n.m.b.z.l.y.2.*.2.b.M.x.M.P.      ",
"      F.D.n.d.i.;.2.0.s.l.x.M.Z.V.D.F.F.K.K.K.K.K.K.K.K.L.L.L.K.F.K.P.K.K.K.K.F.D.D.Z.M.b.x.c.z.l.h.p.0.2.;.;.0.j.s.s.x.L.      ",
"      S.D.Y P ;.I.G.k.6.2.0.y.d.x.n.B.V.D.S.D.D.J.J.D.J.D.F.F.D.D.D.D.D.D.D.Z.Z.Z.B.n.m.x.x.z.l.p.s.x.U.D.m < K e f G p.C.      ",
"    Z.0.q.D k j y t d B A , =.s.z.n.B.V.V.V.D.V.D.V.D.V.V.C.D.C.D.V.C.V.Z.Z.Z.M.B.B.n.n.n.m.x.x.&.x p q 0 0 0 u d a F ` s.H.    ",
"    D.y.` ( P } @.C Z x u r r L M.Z.V.V.V.C.D.D.V.N.B.n.b.x.z.k.l.j.j.h.j.l.k.z.x.b.n.B.N.N.V.F.5 2 2 b L P I P L O.d ` d.N.    ",
"    I y.[ L 0.+.Y I I O.S L P 6.d.l.k.k.k.z.k.l.l.j.d.h.d.s.s.s.s.s.s.s.s.p.s.p.s.p.i.i.y.0.0.0.y.L =.$.I L m K C @.b [ z.,.    ",
"    { h. .I p.6.+.&.S ;.2.2.&.S.S.F.F.F.K.F.F.F.J.D.J.D.D.S.D.C.D.J.D.D.D.C.Z.N.n.x.c.z.k.d.s.s.0.2.;.&.@.L } I Y P 2 o.b.<.    ",
"  j.} g.X.@.;.*.@.$.&.I P L S H I d.0.z.k.s.9.2.*.@.@.Y L P Y Y O.+.#.$.%.=.;.5.p.k.c.m.x.z.C.5 w w i r r h g s ~ / ) :.v.1.x.  ",
"  b.=.f.>.o.| ] y _ / / ^ ! D l M k.d.x.x.x.x.b.x.n.b.b.b.b.x.x.z.c.x.x.x.x.x.x.x.x.x.x.x.m.F.0 g g g j j j j = J H Z P *.n.n.  ",
"  n.m.V.z.s.6.;.v m b n s 2 2 2 < b.d.b.b.x.x.b.b.b.x.b.b.x.x.z.z.c.c.c.x.x.z.x.x.x.x.m.m.n.C.I.P.K.F.F.F.S.F.6.B.x.z.B.H.S.C.  ",
"  C.B.P.K.F.K.K.P K.K.F.S.S.C.D.D.D.l.z.n.b.n.n.b.b.b.x.x.x.x.x.x.c.x.x.b.b.x.x.b.x.x.x.b.n.N.N.N.B.M.M.n.M.n.n.x.x.z.B.L.9.p.  ",
"  d.i.P.K.G.K.P.@.K.K.F.S.D.S.S.S.S.z.z.n.b.n.n.n.n.n.b.b.b.x.x.x.x.m.m.m.b.b.x.b.b.m.n.b.B.N.B.M.n.m.n.n.m.m.n.x.z.c.C.L.2.q.k.",
"y.s.y.I.F.F.F.P.S.K.K.H.S.S.S.S.S.S.x.k.n.n.n.n.B.n.n.n.b.b.b.b.x.x.m.m.b.b.m.m.m.n.m.m.m.V.N.M.n.n.b.m.m.m.x.x.x.z.c.S.U.2.9.Y.",
"m.s.0.K.K.F.K.I.K.K.K.F.F.S.S.S.F.S.S.z.c.n.n.M.B.B.n.n.n.b.b.b.m.m.m.x.m.m.m.m.n.m.n.k.b.B.N.B.n.n.m.4.s.x.x.x.x.z.x.F.P.2.0.x.",
"k.p.2.G.F.F.F.K.K.K.K.K.C.Z.x.Z.Z.C.S.z.s.j.x.b.n.n.n.b.x.x.x.x.z.z.z.k.z.z.z.z.z.i.0.s.B.V.B.M.n.n.n.x.b.x.b.m.x.c.x.F.P.4.2.p.",
"j.i.2.F.F.F.F.K.G.G.K.G.F.F.F.F.S.S.S.S.l.2.$.I P L L L S S S S S A S C S S L P Y *.j.V.C.Z.M.n.n.m.m.b.x.b.+.j.s.i.p.d.j.=.;.y.",
"0.$.2.k.d.l.z.x.z.1 K.K.G.F.F.F.S.S.S.S.S.S.F.S.F.S.S.F.F.F.D.D.C.C.C.C.D.D.D.D.C.Z.n.Z.M.n.m.m.m.m.x.x.x.x.z.z.z.z.x.F.P.2.9.s.",
"s.0.;.D.F.D.D.S.D.C.9.F.F.D.D.D.S.C.C.C.C.C.C.C.C.C.C.D.D.D.M.M.n.n.n.n.n.M.n.M.n.m.b.b.b.b.b.b.c.j.2.I , k.k.z.k.z.c.F.U.2.0.p.",
"p.2.2.D.F.F.F.F.C.V.Z.B.B.B.m.c.z.k.k.k.l.l.l.l.j.h.j.d.d.d.s.s.s.s.s.p.p.p.p.p.p.a.u.s.s.s.j.a.j.j.j.j.h.j.l.l.k.z.x.K.Y.2.2.0.",
"i.2.2.F.S.F.D.D.C.N.B.M.m.b.x.c.z.z.k.k.j.j.d.s.p.p.p.p.q.y.0.6.0.0.6.6.6.6.6.6.6.6.6.6.0.0.0.9.9.y.y.q.p.p.s.s.j.z.b.K.T.2.;.4.",
"0.2.;.G.F.F.D.D.N.M.m.x.z.k.l.j.h.d.s.s.p.p.y.0.9.0.6.4.2.2.2.2.;.;.;.;.;.;.;.;.;.2.;.<.2.2.2.2.4.0.0.y.y.p.s.s.l.z.M.U.T.2.=.2.",
"6.;.2.Y.I.I.I.I.K.F.F.D.S.D.D.S.F.S.D.F.F.F.H.K.K.L.K.K.K.K.I.K.I.L.L.K.L.L.K.K.H.S.D.Z.M.M.M.n.x.b.x.c.z.l.j.d.s.s.s.p.9.;.&.=.",
"2.;.2.9.s.k.c.x.x.x.x.x.c.x.c.c.z.c.z.z.c.z.c.c.x.x.x.x.b.b.b.b.x.b.b.x.x.x.x.x.x.c.z.k.l.j.l.j.j.j.d.s.p.y.0.q.0.0.0.6.;.&.$.*.",
"2.=.;.4.p.d.j.k.j.l.j.j.j.d.j.d.d.s.s.s.s.s.d.j.j.j.l.l.k.l.k.l.l.j.l.j.j.j.d.j.s.s.p.p.p.p.p.p.p.p.y.6.2.2.2.;.1.-.;.=.*.@.+.*.",
"2.*.*.2.6.p.s.p.p.p.p.y.y.y.y.y.q.9.0.y.0.0.0.0.y.q.p.p.s.p.s.p.s.p.p.p.p.p.p.y.0.0.6.6.0.0.0.2.2.2.;.;.;.;.=.;.-.-.*.%.#.O.O.%.",
"&.*.&.=.2.2.6.2.2.2.2.2.2.2.4.2.2.4.2.;.2.2.2.2.2.2.2.0.0.0.0.0.0.0.0.6.0.0.2.6.6.2.2.;.2.;.2.2.;.;.;.*.*.*.*.*.&.&.&.@.+.Y Y *.",
"  &.$.*.=.=.2.;.;.-.;.;.;.<.;.;.;.;.2.2.;.2.2.2.;.2.2.2.2.0.0.6.6.6.2.2.2.2.0.0.2.2.2.2.2.2.2.;.;.;.=.*.%.&.$.$.$.$.#.#.O.Y O.*.",
"  $.+.$.&.*.*.*.=.*.=.;.=.2.2.2.0.0.9.y.y.p.p.p.p.s.s.s.d.d.h.j.s.h.h.j.h.j.j.h.s.s.j.s.s.s.p.p.y.6.2.;.=.*.$.@.+.@.+.+.O.Y +.*.",
"  @.O.+.#.$.$.&.&.=.;.2.y.s.h.l.z.x.m.n.M.M.M.Z.M.M.n.x.z.k.j.p.2.;.&.@.Y P L S A Z C C S S L P O.=.y.j.p.2.*.@.O.+.+.+.Y Y O.Y ",
"  +.U Y } +.#.#.*.2.v z x 1 , - & # - & & & & & & & & # & & # # & # # # & & & & & # # & # + E Q W W R T 4 @ : S Y Y Y I I I Y   ",
"  Y I I I I Y Y : o E 9 9 8 E E W 3 + # # # & & * - - : , 2 2 2 1 1 2 , , : : = = & & # + + O & # & & & * & & + X . X O O # *   ",
"  + + O O O X O O O X O O O O O O O + + + + + O + + O + O O O O O O O + O + + O + + O + O + O O O O O O O O O X 1 X X X O O +   ",
"  O + O O O X + X O O O O O O O + O O + O O + O O O O O O O O O O O O O O O O + O O O O O O O O O O O O X O O O O X X X X O +   ",
"  O O X X X O + O O X O O O O O O O O O O O + O + O O O O + O O O + O O O + O O O O O O O O X O X O X O O O O O X O X X X O O   ",
"  O X X O X X O X O O O O X O X O O & & * : : , 2 s v b n C C C C I Y $.;.9.s.l.k.k.l.p.;.L O O O X X X . X X O O X X O X X X   ",
"  X X O X X X O O O X X X O X X X X , + X X X X . . . . . . . . . . . . . . . . . . . . . & O . . . . . . . O . . X X X X X X   ",
"  . . X O X . X . + X . . . . . . . + X . . . . . . . . . . . . . . . . . . . . . . . . . X . . . . . . . X & . X X . O O X X   ",
"  . X X X X X X . = X . . . . . . . + X . . . . . . . . . . . . . . . . . . . . . . . . . O . . . . . . . . + X X X . X O . X   ",
"  X . X X . X X X X . . . . . . . . . . . . . . . . . . . . . . . . . . . . . . . . . . . . . . . . . . . . . . X X X X X X X   ",
"  + O . . X X X X . . . . . . . . . . . . . . . . . . . . . . . . . . . . . . . . . . . . . . . . . . . . . . X X . X X X . X   ",
"    . X X X X X . X . . . . . . . . . . . . . . . . . . . . . . . . . . . . . . . . . . . . . . . . . . . . . . X . X X X X +   ",
"    X X X X X X X . . . . . . . . . . . . . . . . . . . . . . . . . . . . . . . . . . . . . . . . . . . . . . X . X . . . X     ",
"      . X . . . . . . . . . . . . . . . . . . . . . . . . . . . . . . . . . . . . . . . . . . . . . . .                         ",
"                          . . . . . . . . . . . . . . . . . . . . . . . . . . .                                                 ",
"                                                                                                                                ",
"                                                                                                                                ",
"                                                                                                                                "
};
